<?xml version="1.0" encoding="utf-8"?>
<!-- Generator: Adobe Illustrator 22.1.0, SVG Export Plug-In . SVG Version: 6.00 Build 0)  -->
<svg version="1.1" id="Layer_1" xmlns="http://www.w3.org/2000/svg" xmlns:xlink="http://www.w3.org/1999/xlink" x="0px" y="0px"
	 viewBox="0 0 637.8 226.8" style="enable-background:new 0 0 637.8 226.8;" xml:space="preserve">
<style type="text/css">
	.st0{fill:#0065BD;}
	.st1{fill:#FFFFFF;}
</style>
<g>
	<rect class="st0" width="226" height="226"/>
	<g>
		<path class="st1" d="M183.2,98l5.8-4.2c-2.2-2.3-4.5-5.2-4.5-9.7c0-3.4,2.3-7.2,5.3-8.8c-1.6-1.9-4.1-3.6-7.7-3.6
			c-4.7,0-8.6,3.4-8.6,8c0,3.1,2,5.8,4.4,7C177.9,91.1,179.9,95,183.2,98 M152.2,67.2l4.8-8.6h-7.2c0,1.6-1.4,3.3-3.1,3.3
			c-1.9,0-3.1-1.3-3.1-3.3h-6.4c0,1.9-1.4,3.3-3.1,3.3c-1.7,0-3.1-1.4-3.1-3.3h-7.2l4.2,8.3c3.3-0.3,6.4-0.5,9.5-0.5
			C143.3,66.4,148.3,66.7,152.2,67.2 M139.1,143.5c-0.8-1.4-1.6-3.1-1.6-6.3c0-4.1,2.3-7.5,7.4-9.7c3.3-1.6,5.8-3,10.2-5.2
			c10.3-5.3,13.9-15.3,13.9-25.7c0-5.2-1.4-9.2-3.1-12.7c0.5,2.8,0.9,5.2,0.9,8c0,10.8-3.8,18.8-13.6,23.6
			c-6.3,3.1-9.4,4.4-13.1,6.3c-5.3,2.8-8.3,6.4-8.3,10.8C131.7,138.2,134.5,142.3,139.1,143.5 M133,141.5c-1.7-1.7-3.6-4.9-3.6-8.9
			c0-5.2,3.4-9.5,9.5-12.7c5.3-2.5,8.4-3.8,13.1-5.9c9.9-4.8,12.8-13.1,12.8-22.1c0-8.6-2.8-13-5.2-15.8c1.7,3.3,2.2,7.2,2.2,10.5
			c0,9.5-2.8,17.8-13.9,22.2c-5.6,2.3-9.2,3.1-14.1,5.3c-7.7,3.6-10.6,7.8-10.6,14.1C123.3,134.2,127,139.8,133,141.5 M127,140.3
			c-2.7-2.2-6.1-5.8-6.1-12.2c0-6.7,2.8-11.7,11.6-15.5c5.6-2.3,8.6-3.4,13.9-5.5c11.3-4.2,13.6-12.5,13.6-20.7
			c0-7.8-2.8-12.4-6.3-15.3c2,2.5,3.3,6.7,3.3,11.1c0,10.3-3.9,16.1-15,20c-4.5,1.4-9.4,2.8-14.4,4.7c-9.1,3.4-13.8,8.4-13.8,16.9
			C113.9,132.6,120.6,139.2,127,140.3 M120.8,139.2c-6.3-3.1-9.2-9.9-9.2-15.8c0-8.6,5.3-14.7,14.2-18c5.5-2,9.9-3.3,15.3-5.2
			c10.6-3.8,14.1-8.8,14.1-18.3c0-5.5-2-10.2-5.3-12.8c1.1,1.3,1.4,2.8,1.4,4.2c0,2.7-1.4,3.9-3.4,3.9c-1.3,0-2.5-0.8-2.7-2
			c0.6,0.5,1.1,0.6,1.7,0.6c1.7,0,2.7-1.3,2.7-3c0-2.7-2.5-4.1-5-4.4c-2.2-0.3-4.5-0.3-7.2-0.3c-2.7,0-5.2,0.2-8.4,0.3
			c2,2.8,8.8,2,10.8,3.4c-1.7-0.2-3.4-0.2-5.2,0.3c0,1.1-0.5,2.3-1.6,2.3c-2,0-3-2.2-4.4-6.1l-8,0.6c-1.3,0.2-1.7,0.6-1.6,1.6
			l0.8,7.8c0,0.3,0.3,0.5,0.6,0.5c0.3,0,0.6-0.2,0.8-0.6c0.3-0.6,1.3-2,3.6-2c3.4,0,6.1,3.1,6.3,6.7c-1.2-1.7-4.1-3.3-8.8-3.3
			c-3.6,0-6.6,1.1-11.3,1.1c-5,0-7.8-1.9-7.8-4.2c0-1.1,0.2-1.7,0.8-2.5c-2,0.9-3.6,2.7-3.6,5.5c0,3.4,2.5,7,9.9,7
			c6.7,0,9.9-4.2,16-4.2c2.8,0,4.2,1.4,4.2,3c0,1.4-1.3,2.7-3.4,2.7c-2.7,0-4.5-1.4-5.5-2.8c-0.2-0.3-0.3-0.5-0.6-0.5
			c-0.5,0-0.6,0.3-0.6,0.6l0.2,7.5c0,0.9,0.5,1.4,1.6,1.3c4.7-0.5,9.5-1.1,14.1-1.4c8.4-0.8,14.2-6.4,14.2-12.7c0-0.9,0-1.7-0.2-2.7
			c0.8,1.3,1.1,2.5,1.1,4.1c0,5.8-3.1,10.2-13.1,12.8c-5.3,1.4-9.2,2-13.8,3.1c-12,2.8-19.9,12-19.9,22.4
			C104.5,129.3,111.2,137.9,120.8,139.2 M68.3,82.7c0.6-1.4,0.8-2.7,0.8-3.6c0-2-0.9-3.9-1.9-4.7c2.3,0,4.4,1.7,4.4,4.1
			C71.6,80.6,70.2,82.1,68.3,82.7 M97.1,119.9l5-2.7c1.7-10.5,8-17.8,18.9-20.5c-5.8,0.3-10.8,0.5-17.8,0.8
			c-7.5,0.3-19.9,1.3-28.5,1.9c-1.7,0.2-2.8-0.5-3.3-1.9C71,96,70.1,93,69.9,91.3c-0.2-1.4,0.2-2.3,1.4-3.3c2.5-1.7,5-3.8,5-8
			c0-4.5-3.9-7.5-7.5-7.5c-1.3,0-2.2,0.2-3,0.5c-0.9-0.6-1.9-1.1-3.8-1.1c-2.7,0-5,1.7-5.6,3.1c-4.5-0.3-8.1,3-7.8,7.4
			c0.6-0.6,1.9-1.2,3.3-1.2c1.7,0,3.3,1.2,3.3,3.1c0,1.7-0.3,3.9-0.3,6.3c0,7.2,5.8,11,5.8,14.7c0,1.9-1.4,3.4-3.3,3.4
			c1.1,3.9,4.7,5.9,9.5,5.9c3.1,0,5.9-0.3,10.5-0.3C90.4,114.3,96,115.7,97.1,119.9 M145.3,164.2h1.6c-0.2-5-1.4-8.4-3.4-12
			c-1.1-2-2.5-4.2-3.6-5.6c-0.6-0.9-1.4-1.2-2.3-1.2c-0.6,0-1.1,0.5-0.6,1.2c1.3,2,3,5.2,5.2,10c-1.9,0.3-2.3,1.3-2.3,2.8
			C139.7,161.8,142,164.2,145.3,164.2 M62.2,83.3c0.2-4.4-1.7-6.7-4.4-7.8c0.5-0.2,1.1-0.5,2-0.5c2,0,4.2,1.7,4.2,4.4
			C64.1,80.8,63.6,82.4,62.2,83.3 M162.5,193.5c-0.6-1.4-2.7-2.8-5.2-2.8c-1.4,0-2.3,0.3-3,0.6c0.2-1.3,1.4-2.7,3.9-2.7
			C161.3,188.6,162.8,191,162.5,193.5 M161.6,200.2c-0.9-1.1-2.5-2-4.5-2c-2.5,0-3.8,1.1-4.4,1.9c-0.3-1.9,1.3-4.2,4.2-4.2
			C160,195.8,161.6,198,161.6,200.2 M50.3,125.5c1.1-2.7,3.6-4.5,6.6-5.2c0.6-0.9,1.4-1.7,2.2-2.3l-5.3-22.2
			c-0.6-1.6-1.1-3.1-1.1-5.3c0-2.3,0.5-4.7,0.5-5.9c0-1.1-0.6-1.4-1.2-1.4c-0.5,0-0.8,0-0.9,0.2v0.6c0,3.6-2.2,6.4-5.8,6.4
			c-3.6,0-6.4-3-6.4-6.4c0-3.4,2.8-6.3,6.4-6.3c0.6,0,1.4,0,2.3,0.3c1.1-2.8,4.5-5.3,8.1-4.8c-2.5-3.1-6.3-5-10.5-5
			c-9.1,0-16.3,6.6-16.3,15.8c0,8.6,7,15.5,15.8,15.6L50.3,125.5z M74.6,159.2c2.3,0,4.8-1.3,7.2-3.6c4.2-4.1,10.2-10.2,13.8-12.5
			c3.1-2,5.2-2.8,7.2-2.8c1.3,0,2.2,0.3,3.1,1.3l5.3-4.1c-6.1-4.5-8.9-10.5-9.1-17.8c-8.4,4.5-14.6,10.8-21.6,16.7
			c-1.2,0.9-1.9,1.4-3,1.4s-2-1.1-3.9-3c-1.6-1.6-1.9-2.5-1.9-3.6c0-1.9,0.6-2.5,0.6-5c0-5-3.9-7.8-7.7-7.8c-3.1,0-5.5,1.7-6.3,3.9
			c-4.2,0.3-6.9,3.4-6.9,6.7c0,0.8,0.2,1.4,0.3,1.9c-1.6,0.9-3.1,2.8-3.1,5.3c0,2.7,1.4,5.2,3.8,5.9c-0.3-0.5-0.5-1.1-0.5-1.9
			c0-1.4,1.3-2.7,3-2.7c1.4,0,2.3,0.5,3.4,1.7c1.4,1.9,2.8,3.6,5.2,5.6c2.2,1.9,4.7,3.1,7,4.5c1.4,0.9,2.5,2.2,2.5,4.1
			c0,1.3-0.9,2.7-2.8,3.1C71.2,158.4,72.7,159.2,74.6,159.2 M65.7,128.7c-0.2-3.1-2.5-5.6-5.5-6.3c0.5-0.3,1.3-0.8,2.5-0.8
			c2.2,0,3.9,1.9,3.9,3.9C66.6,127.1,66.1,127.9,65.7,128.7 M83,211c-0.6-0.8-0.9-1.6-0.9-2.5c0-1.9,1.6-3.3,3.8-3.3
			c3.4,0,5.3,3.8,9.9,3.8c5.2,0,7.7-3.8,12.4-3.8c2.3,0,5.6,1.4,5.6,4.4c0,0.5-0.2,0.9-0.5,1.3c5.3,0,9.1-4.5,9.1-12
			c0-10.5-0.3-14.7-0.5-20.5c4.1-0.2,8-2.2,7.4-8.6c-1.1,0.9-2.3,1.4-3.8,1.4c-1.9,0-3.3-1.4-3.3-3.4c0-0.9,0-2,0.2-3.1l18.3-0.5
			c-1.7-0.9-3-2.8-3-5c0-1.6,0.6-2.7,1.9-3.3c-1.7-3.6-3.1-6.4-4.8-9.1c-0.9-1.4-2-2.8-4.2-2.8c-4.9-0.2-14.7,1.3-19.7,3
			c-3.8,1.3-7.4,4.1-7.4,10.5c0,5.9,2,16.4,1.9,32.9c0,2.3-0.6,3.1-2,3.4c-1.3,0.3-4.5,0.6-6.6,0.3c-1.1-0.2-2-0.9-2.7-3.3
			c-0.8-3.3-3.1-6.6-7.8-6.6c-4.2,0-8,3.1-7.4,7.8c-2,1.3-3,3.3-3,5.2c0,1.9,0.6,3.4,1.4,4.4c-0.5,1.1-0.6,1.7-0.6,2.8
			C76.6,208.2,80.1,211,83,211 M61,132.9c-0.9-1.9-3-3-5.3-3c-0.9,0-1.7,0.2-2.3,0.3c0.3-1.3,1.7-2.3,3.8-2.3
			C59.7,127.9,61.5,129.9,61,132.9 M88.4,193.5c-0.6-1.4-2.7-2.8-5.2-2.8c-1.4,0-2.3,0.3-3,0.6c0.2-1.3,1.4-2.7,3.9-2.7
			C87.1,188.6,88.7,191,88.4,193.5 M75.1,207.1c-0.5-0.9-0.6-1.9-0.6-2.8c0-0.9,0.2-1.7,0.5-2.5c-0.8-1.4-1.3-3-1.3-4.7
			c0-2.3,1.1-4.5,2.7-5.9L66.6,149c-1.6-0.8-3.1-1.7-4.4-2.8c-2.2-1.9-3.4-3.3-5.5-5.6c-0.6-0.6-1.1-0.9-1.7-0.9
			c-0.9,0-1.6,0.6-1.3,1.9l2,9.7l4.2,3l11.7,50.4L75.1,207.1z M87.4,200.2c-0.9-1.1-2.5-2-4.5-2c-2.5,0-3.8,1.1-4.4,1.9
			c-0.3-1.9,1.3-4.2,4.2-4.2C85.9,195.8,87.4,198,87.4,200.2 M10.1,211.9l9.5-7.4l11.7-50.4l4.2-3l9.4-40.4l-2-9.4
			c-2.3-0.5-4.4-1.1-6.1-2L10.1,211.9z M157.2,211c-0.6-0.8-0.9-1.6-0.9-2.5c0-1.9,1.6-3.3,3.8-3.3c3.4,0,5.3,3.8,9.9,3.8
			c5.2,0,7.7-3.8,12.4-3.8c2.3,0,5.6,1.4,5.6,4.4c0,0.5-0.2,0.9-0.5,1.3c5.3,0,9.1-4.5,9.1-12c0-10-0.9-21.1-2-32.2
			c2.8-0.6,5.5-3.4,5.5-7c0-1.2-0.5-2.7-1.3-3.9c-0.8,1.1-2.2,2-4.5,2.7c-3.3,0.9-7.4,1.4-10.3,1.4c-6.7,0-8.9-0.5-12-1.4
			c-0.2-4.2-2.8-7.7-5.3-10c3.9,1.6,5.6,2.3,11.9,2.3c20,0,32.4-13.5,32.4-28.8c0-11.1-7-16.3-13.5-20l-5.9,4.2
			c7.2,3.3,11.9,8.1,11.9,14.7c0,7.2-5.8,12.4-12.5,12.4c-7.2,0-12.8-5.2-12.8-12.2c0-5.3,2.5-9.2,7.2-13
			c4.7-3.8,11.9-8.3,15.8-12.5c2-2.2,3.8-5.6,3.6-8.3c2.7-1.3,4.7-3.9,4.7-7.4c0-4.5-4.4-8-9.1-8c-2.8,0-5.9,1.7-7.5,3.6
			c2.8,1.1,5.5,4.8,5.5,8.8c0,3.3-2,6.1-4.4,8.4c-3.6,3.6-8.3,6.3-13.5,10.5c-6.3,5.2-10,11.3-10,18.1c0,9.5,7.4,18.5,18.9,18.5
			c3.8,0,6.7-0.8,8.9-2.2c-3.8,4.4-10.8,6.6-18.1,6.6c-6.4,0-10.8-0.9-15.5-4.4c-4.2-3.1-7.5-10.5-7.4-16c-3.4,2-7.5,3.9-11,5.5
			c-4.9,2.3-6.4,4.8-6.4,9.1c0,5.6,3.9,10,5.6,13.3c2.3,4.2,3.1,8,3.4,11.9c0.9,9.5,6.4,13.9,16.1,13.9c4.4,0,10.2-0.3,12.5-0.6
			c0.9,4.4,2,9.5,2,13.5c0,2.3-0.6,3.1-2,3.4c-1.3,0.3-4.5,0.6-6.6,0.3c-1.1-0.2-2-0.9-2.7-3.3c-0.8-3.3-3.1-6.6-7.8-6.6
			c-4.2,0-8,3.1-7.4,7.8c-2,1.3-3,3.3-3,5.2c0,1.9,0.6,3.4,1.4,4.4c-0.5,1.1-0.6,1.7-0.6,2.8C150.8,208.2,154.2,211,157.2,211"/>
		<path class="st0" d="M613.7,226H636v-7.4h-13v-5.2h12.6v-7.2H623V201h13v-7.4h-22.3V226z M590.4,226.8c7.6,0,13.9-3.7,13.9-12.7
			v-20.4h-9.3v19.5c0,3.7-2,5.3-4.6,5.3c-2.6,0-4.6-1.6-4.6-5.3v-19.5h-9.3v20.4C576.5,223.1,582.8,226.8,590.4,226.8 M557,226.8
			c5.8,0,9.7-1.8,11.7-2.8v-14.3h-9.1v8.7c-0.7,0.1-1.4,0.2-2.1,0.2c-3.6,0-7.6-2.8-7.6-8.8c0-6.6,3.5-9.8,9.6-9.8
			c3.3,0,6.2,1.1,7.9,2.1v-7.6c-1.9-0.9-5-2-9.3-2c-11,0-18.4,6.8-18.4,17.4C539.7,220.4,547.9,226.8,557,226.8 M516.2,212.7
			l3.2-11.9h0.4l3.2,11.9H516.2z M526.6,226h9.6l-9.7-32.3h-13.6l-9.7,32.3h9.6l1.8-6.7h10.3L526.6,226z M482.8,208.6v-8h3.8
			c2.5,0,4,2,4,4c0,2-1.5,4-4,4L482.8,208.6L482.8,208.6z M473.4,226h9.3v-11.4h2.4l5.6,11.4h10.5l-5.9-10c-0.6-1-1.4-2-1.8-2.3
			l0-0.2c2.9-1.3,6.9-3.7,6.9-9.2c0-5.8-4.6-10.7-12.2-10.7h-14.8L473.4,226L473.4,226z M449.5,208.6v-8h3.7c2,0,3.9,1.7,3.9,4
			c0,2.3-1.9,4-3.9,4L449.5,208.6L449.5,208.6z M440.2,226h9.3v-10.5h4.8c7.6,0,12.3-4.8,12.3-10.7c0-5.9-4.7-11.1-12.3-11.1h-14.1
			V226z M388.1,226h9.3v-19.4h0.1l9.8,19.4h11.4v-32.3h-9.3V213h-0.1l-9.7-19.3h-11.5L388.1,226L388.1,226z M369.3,226h9.3v-32.3
			h-9.3V226z M334.2,226.8c7.6,0,13.9-3.7,13.9-12.7v-20.4h-9.3v19.5c0,3.7-2,5.3-4.6,5.3c-2.6,0-4.6-1.6-4.6-5.3v-19.5h-9.3v20.4
			C320.2,223.1,326.6,226.8,334.2,226.8 M297,226h9.3v-24.8h8v-7.6h-25.4v7.6h8.1L297,226L297,226z M275.8,226.5c3.9,0,7.1-1,9-2
			v-8.1c-1.9,1-4,1.9-7.4,1.9c-3.4,0-8.3-2.6-8.3-8.4c0-5.8,4.5-8.6,8.8-8.6c2.9,0,5,0.7,6.8,1.6v-8c-1.9-0.9-4.3-1.5-8.1-1.5
			c-9.6,0-17.7,6.3-17.7,16.6C259,220.2,266.3,226.5,275.8,226.5"/>
		<path class="st0" d="M596.5,178.4c5.8,0,9.7-1.8,11.7-2.8v-14.3h-9.1v8.8c-0.7,0.1-1.4,0.2-2.1,0.2c-3.6,0-7.6-2.8-7.6-8.8
			c0-6.6,3.5-9.8,9.6-9.8c3.3,0,6.2,1.1,7.9,2.1v-7.6c-1.9-0.9-5-2-9.3-2c-11,0-18.4,6.8-18.4,17.4
			C579.2,172,587.5,178.4,596.5,178.4 M541,177.6h9.3v-19.4h0.1l9.8,19.4h11.4v-32.3h-9.3v19.3h-0.1l-9.7-19.3H541L541,177.6
			L541,177.6z M522.2,177.6h9.3v-32.3h-9.3V177.6z M496.9,160.2v-8h3.8c2.5,0,4,1.9,4,4c0,2-1.5,4-4,4H496.9z M487.6,177.6h9.3
			v-11.4h2.4l5.6,11.4h10.5l-5.9-10c-0.6-1-1.4-2-1.8-2.3l0-0.2c2.9-1.3,6.9-3.7,6.9-9.2c0-5.8-4.6-10.7-12.2-10.7h-14.8
			L487.6,177.6L487.6,177.6z M456.8,177.6h22.3v-7.4h-13V165h12.6v-7.2h-12.6v-5.2h13v-7.4h-22.3V177.6z M426,177.6h22.3v-7.4h-13
			V165h12.6v-7.2h-12.6v-5.2h13v-7.4H426V177.6z M385.8,177.6h9.3v-19.4h0.1l9.8,19.4h11.4v-32.3h-9.3v19.3H407l-9.7-19.3h-11.5
			V177.6z M367,177.6h9.3v-32.3H367V177.6z M347.2,178.4c5.8,0,9.7-1.8,11.7-2.8v-14.3h-9.1v8.8c-0.7,0.1-1.4,0.2-2.1,0.2
			c-3.6,0-7.6-2.8-7.6-8.8c0-6.6,3.5-9.8,9.6-9.8c3.3,0,6.2,1.1,7.9,2.1v-7.6c-1.9-0.9-5-2-9.3-2c-11,0-18.4,6.8-18.4,17.4
			C330,172,338.2,178.4,347.2,178.4 M291.7,177.6h9.3v-19.4h0.1l9.8,19.4h11.4v-32.3h-9.3v19.3h-0.1l-9.7-19.3h-11.5L291.7,177.6
			L291.7,177.6z M260.9,177.6h22.3v-7.4h-13V165h12.6v-7.2h-12.6v-5.2h13v-7.4h-22.3V177.6z"/>
		<path class="st0" d="M606.8,129.2h20.9v-7.7h-11.6V96.8h-9.3L606.8,129.2L606.8,129.2z M581.8,115.9l3.2-11.9h0.4l3.2,11.9H581.8z
			 M592.2,129.2h9.6l-9.7-32.3h-13.6l-9.7,32.3h9.6l1.8-6.7h10.3L592.2,129.2z M555.7,129.7c3.9,0,7.1-1,9-2v-8.1
			c-1.9,1-4,1.9-7.4,1.9s-8.3-2.6-8.3-8.4c0-5.8,4.5-8.6,8.8-8.6c2.9,0,5,0.7,6.8,1.6v-8c-1.9-0.9-4.3-1.5-8.1-1.5
			c-9.6,0-17.7,6.3-17.7,16.6C538.9,123.3,546.2,129.7,555.7,129.7 M522,129.2h9.3V96.8H522V129.2z M496.7,111.8v-8h3.8
			c2.5,0,4,1.9,4,4c0,2-1.5,4-4,4H496.7z M487.4,129.2h9.3v-11.4h2.4l5.6,11.4h10.5l-5.9-10c-0.6-1-1.4-2-1.8-2.3l0.1-0.2
			c2.8-1.3,6.9-3.7,6.9-9.2c0-5.8-4.6-10.7-12.2-10.7h-14.8L487.4,129.2L487.4,129.2z M464,129.2h9.3v-24.8h8v-7.6h-25.4v7.6h8.1
			V129.2z M442.8,129.7c3.9,0,7.1-1,9-2v-8.1c-1.9,1-4,1.9-7.4,1.9s-8.3-2.6-8.3-8.4c0-5.8,4.5-8.6,8.8-8.6c2.9,0,5,0.7,6.8,1.6v-8
			c-1.9-0.9-4.3-1.5-8.1-1.5c-9.6,0-17.7,6.3-17.7,16.6C426,123.3,433.3,129.7,442.8,129.7 M397.1,129.2h22.3v-7.4h-13v-5.2h12.6
			v-7.2h-12.6v-5.2h13v-7.4h-22.3V129.2z M371.4,129.2h20.9v-7.7h-11.6V96.8h-9.3V129.2z M340.6,129.2h22.3v-7.4h-13v-5.2h12.6v-7.2
			h-12.6v-5.2h13v-7.4h-22.3V129.2z M299,96.8v32.3h9.3v-12.5h12.6v-7.2h-12.6v-5.3h12.8v-7.4C321.1,96.8,299,96.8,299,96.8z
			 M275.3,121.7c-4.1,0-6.2-3.3-6.2-8.7s2.1-8.7,6.2-8.7c4.2,0,6.1,3.3,6.1,8.7S279.4,121.7,275.3,121.7 M275.3,129.9
			c9.7,0,16.1-6.1,16.1-16.9c0-10.8-6.5-16.9-16.1-16.9c-9.6,0-16.2,6.1-16.2,16.9C259,123.8,265.6,129.9,275.3,129.9"/>
		<path class="st0" d="M449.6,80.8h9.3V68.9l11.2-20.5h-10.3L454.5,60h-0.2l-5.1-11.6h-10.6l10.9,20.5L449.6,80.8L449.6,80.8z
			 M419.8,80.8h9.3V56h8v-7.6h-25.4V56h8.1L419.8,80.8L419.8,80.8z M391.4,80.8h20.9v-7.7h-11.6V48.4h-9.3V80.8z M368.2,81.5
			c7.6,0,13.9-3.7,13.9-12.7V48.4h-9.3V68c0,3.7-2,5.3-4.6,5.3s-4.6-1.6-4.6-5.3V48.4h-9.3v20.4C354.3,77.9,360.6,81.5,368.2,81.5
			 M338.4,81.3c3.9,0,7.1-1,9-2v-8.1c-1.9,1-4,1.9-7.4,1.9c-3.4,0-8.3-2.6-8.3-8.4c0-5.8,4.5-8.6,8.8-8.6c2.9,0,5,0.7,6.8,1.6v-8
			c-1.9-0.9-4.3-1.5-8.1-1.5c-9.6,0-17.7,6.3-17.7,16.6C321.7,74.9,328.9,81.3,338.4,81.3 M298.2,67.4l3.2-11.9h0.4l3.2,11.9H298.2z
			 M308.5,80.8h9.6l-9.7-32.3h-13.6l-9.7,32.3h9.6l1.8-6.7h10.3L308.5,80.8z M260.9,48.4v32.3h9.3V68.2h12.6v-7.2h-12.6v-5.3H283
			v-7.4C283,48.4,260.9,48.4,260.9,48.4z"/>
	</g>
</g>
</svg>
