<?xml version="1.0" encoding="utf-8"?>
<!-- Generator: Adobe Illustrator 22.1.0, SVG Export Plug-In . SVG Version: 6.00 Build 0)  -->
<svg version="1.1" id="Layer_1" xmlns="http://www.w3.org/2000/svg" xmlns:xlink="http://www.w3.org/1999/xlink" x="0px" y="0px"
	 viewBox="0 0 1020.5 226.8" style="enable-background:new 0 0 1020.5 226.8;" xml:space="preserve">
<style type="text/css">
	.st0{fill:#087ABF;}
	.st1{fill:#BCBEC0;}
</style>
<path class="st0" d="M258.1,71.9c0-26.5-0.9-42.8-2.7-48.9c-13.7,0-26.3,0.4-37.9,1.2c-11.5,0.8-19.6,1.6-24.3,2.3l-7,1.2l-0.7-1.3
	c0.7-5.2,0.7-12.7,0-22.4l0.7-1c5.5,0.7,12.3,1,20.6,1h130.1c8.2,0,15.1-0.3,20.6-1l0.7,1c-0.7,9.7-0.7,17.2,0,22.4l-0.7,1.3
	c-15.5-3.2-38.6-4.8-69.2-4.6c-1.8,6.1-2.7,22.4-2.7,48.9v83c0,29.2,1.2,51.8,3.5,68l-0.8,1c-4-0.7-9.5-1-16.5-1
	c-7,0-12.4,0.3-16.3,1l-0.8-1c2.2-15.4,3.4-38,3.5-68V71.9z"/>
<path class="st0" d="M506.1,184.1c-0.7-31.6-1.8-53.3-3.3-65.1l0.7-1c4.1,0.7,10.2,1,18.3,1l18.9-1l0.7,1c-5,15.1-7.6,34.5-7.9,58.2
	v2.2c0,8.3,2.6,13.7,7.9,16.4v1c-25,20-56.2,30-93.5,30c-33.3,0-60.2-10.9-80.5-32.6c-20.3-21.8-30.5-47.9-30.5-78.5
	c0-18.1,3.4-34.6,10.3-49.5c6.9-14.9,16-27,27.4-36.4C386,20.4,398.8,13.1,413,7.9C427.1,2.6,441.6,0,456.5,0
	c12.1,0,24.4,1.2,37.1,3.5c12.7,2.3,22.4,4.7,29.1,7.2l9.9,3.7l0.6,1c-3.4,15.5-5.5,29.3-6.4,41.5l-3.1,0.3
	c-7.7-13.1-17.8-23.3-30.5-30.9c-12.7-7.5-26.5-11.3-41.5-11.3c-23.5,0-42.7,8.8-57.4,26.4c-14.8,17.6-22.1,41.2-22.1,70.9
	c0,11.8,1.6,23.4,4.7,34.8c3.1,11.4,7.8,22,14,32c6.2,9.9,15,17.9,26.2,23.9c11.2,6,24.1,9,38.7,9c24.4,0,41.2-4.3,50.3-13V184.1z"
	/>
<path class="st0" d="M172.7,1.1h-5.2L51.4,225.7c8-3.9,16.7,0,16.7,0c19.4-41.7,58-118.3,81.6-161.6l1.2,0.2
	c4.4,35.7,9.5,89.5,15.6,161.5c3.5-0.7,9.2-1,17.1-1c8.7,0,14.7,0.3,18.2,1C193,165.5,183.3,90.7,172.7,1.1z"/>
<path class="st1" d="M152.5,225.9c-1.4-3.8-21.5-57.5-23.3-61.3c-5.2-11.2-10.4-22.5-15.6-33.8c-5.3-11.5-10.2-22.1-14.7-31.8
	L73.7,44.2C66.1,27.7,59.4,13.1,53.4,0.2h-9.3C33.2,62.4,18.5,137.6,0,225.9c2.6-0.7,6.4-1,11.4-1c4.2,0,7.6,0.3,10.2,1
	c1.6-9.6,3.9-24.4,6.9-44.5c3.1-20,6.3-41.1,9.7-63.1c3.4-22,6.3-40.4,8.6-54.9h1.5c3.9,8.7,8,17.9,12.3,27.7
	c4.3,9.8,8.4,18.8,12.2,27.3c3.8,8.4,7.8,17.5,12,27.1c4.3,9.6,8.2,18.5,11.9,26.8c3.7,8.2,7.6,17.1,11.8,26.6
	c4.2,9.5,7.5,20,11.1,28C119.7,226.6,138.5,223.7,152.5,225.9z"/>
<polyline class="st0" points="581.8,48.5 597.8,48.5 607.5,65.2 607.7,65.2 617.4,48.5 633.1,48.5 633.1,95.5 619.9,95.5 
	619.9,66.8 619.6,66.8 608,86.8 607.1,86.8 594.9,66.8 594.7,66.8 594.7,95.5 581.8,95.5 581.8,48.5 "/>
<path class="st0" d="M658.7,96.1c-11,0-20.2-5.3-20.2-18.4V48H652v28.4c0,5.3,2.9,7.7,6.7,7.7c3.8,0,6.7-2.4,6.7-7.7V48h13.5v29.6
	C678.9,90.7,669.7,96.1,658.7,96.1"/>
<polygon class="st0" points="684.3,48.5 697.9,48.5 697.9,84.4 714.6,84.4 714.6,95.5 684.3,95.5 "/>
<path class="st0" d="M972.9,85.8h-15l-2.6,9.7h-13.9l14-47h19.8l14.1,47h-13.9L972.9,85.8z M970.4,76.2l-4.6-17.3h-0.6l-4.6,17.3
	H970.4z"/>
<rect x="761.1" y="48.5" class="st0" width="13.5" height="47"/>
<polyline class="st0" points="780,48.5 780,95.5 792.9,95.5 792.9,66.8 793.2,66.8 805.3,86.8 806.3,86.8 817.9,66.8 818.1,66.8 
	818.1,95.5 831.3,95.5 831.3,48.5 815.6,48.5 805.9,65.2 805.7,65.2 796.1,48.5 780,48.5 "/>
<polygon class="st0" points="836.7,48.5 869.1,48.5 869.1,59.3 850.2,59.3 850.2,66.8 868.5,66.8 868.5,77.2 850.2,77.2 850.2,84.8 
	869.1,84.8 869.1,95.5 836.7,95.5 "/>
<path class="st0" d="M890.9,83.8H888V60.2h2.8c6.5,0,11.5,4.2,11.5,11.8C902.3,79.6,897.4,83.8,890.9,83.8 M874.5,95.5h18.6
	c13.5,0,24.1-9.3,24.1-23.5c0-14.2-10.6-23.5-24.1-23.5h-18.6V95.5z"/>
<rect x="922.6" y="48.5" class="st0" width="13.5" height="47"/>
<path class="st0" d="M954.6,160.5c8.1,0,13.7-2.5,16.4-3.9v-20.1h-12.7v12.3c-0.9,0.2-1.9,0.3-2.9,0.3c-5.1,0-10.7-3.9-10.7-12.4
	c0-9.2,4.9-13.7,13.4-13.7c4.7,0,8.7,1.6,11.1,2.9v-10.7c-2.7-1.2-7.1-2.9-13.1-2.9c-15.4,0-25.7,9.5-25.7,24.3
	C930.4,151.6,942,160.5,954.6,160.5"/>
<path class="st0" d="M817.1,160.2c13.5,0,22.6-8.6,22.6-23.7s-9.1-23.7-22.6-23.7c-13.5,0-22.7,8.6-22.7,23.7
	S803.6,160.2,817.1,160.2 M817.1,148.6c-5.8,0-8.7-4.7-8.7-12.1c0-7.5,2.9-12.1,8.7-12.1c5.9,0,8.6,4.7,8.6,12.1
	C825.7,143.9,822.9,148.6,817.1,148.6"/>
<path class="st0" d="M683,159.8c5.4,0,9.9-1.4,12.7-2.8v-11.4c-2.6,1.4-5.6,2.6-10.3,2.6c-4.7,0-11.6-3.6-11.6-11.8
	c0-8.2,6.3-12.1,12.3-12.1c4.1,0,7,0.9,9.5,2.2v-11.3c-2.7-1.2-6-2.1-11.3-2.1c-13.4,0-24.8,8.8-24.8,23.3
	C659.5,150.9,669.7,159.8,683,159.8"/>
<polygon class="st0" points="701.1,113.8 701.1,159.1 714.2,159.1 714.2,141.4 727.5,141.4 727.5,159.1 740.6,159.1 740.6,113.8 
	727.5,113.8 727.5,131.1 714.2,131.1 714.2,113.8 "/>
<polygon class="st0" points="622.8,159.1 654.1,159.1 654.1,148.8 635.9,148.8 635.9,141.5 653.5,141.5 653.5,131.4 635.9,131.4 
	635.9,124.1 654.1,124.1 654.1,113.8 622.8,113.8 "/>
<polygon class="st0" points="593.1,159.1 606.2,159.1 606.2,124.4 617.4,124.4 617.4,113.8 581.8,113.8 581.8,124.4 593.1,124.4 "/>
<polygon class="st0" points="746,159.1 759.1,159.1 759.1,131.9 759.3,131.9 773,159.1 788.9,159.1 788.9,113.8 775.9,113.8 
	775.9,140.9 775.7,140.9 762.1,113.8 746,113.8 "/>
<polygon class="st0" points="845.1,159.1 874.3,159.1 874.3,148.4 858.1,148.4 858.1,113.8 845.1,113.8 "/>
<path class="st0" d="M902.4,160.2c13.5,0,22.6-8.6,22.6-23.7s-9.1-23.7-22.6-23.7c-13.5,0-22.7,8.6-22.7,23.7S889,160.2,902.4,160.2
	 M902.4,148.6c-5.8,0-8.7-4.7-8.7-12.1c0-7.5,2.9-12.1,8.7-12.1c5.9,0,8.6,4.7,8.6,12.1C911,143.9,908.3,148.6,902.4,148.6"/>
<polygon class="st0" points="991.8,159.1 1004.8,159.1 1004.8,142.5 1020.5,113.8 1006,113.8 998.6,130 998.3,130 991.2,113.8 
	976.4,113.8 991.8,142.5 "/>
<path class="st0" d="M767.4,225.4h13.1v-14.7h6.7c10.6,0,17.2-6.7,17.2-15.1c0-8.3-6.6-15.6-17.2-15.6h-19.7V225.4z M780.4,201
	v-11.2h5.1c2.9,0,5.5,2.4,5.5,5.6c0,3.3-2.6,5.6-5.5,5.6H780.4z"/>
<path class="st0" d="M627.8,225.4h13.1v-15.9h3.3l7.9,15.9h14.7l-8.3-14c-0.9-1.5-1.9-2.8-2.5-3.2l0.1-0.3c4-1.8,9.7-5.2,9.7-12.9
	c0-8.1-6.5-14.9-17.1-14.9h-20.8V225.4z M640.8,201v-11.3h5.3c3.5,0,5.6,2.7,5.6,5.6c0,2.9-2.1,5.7-5.6,5.7H640.8z"/>
<path class="st0" d="M606,226.8c8.1,0,13.7-2.5,16.4-3.9v-20.1h-12.7v12.3c-0.9,0.2-1.9,0.3-2.9,0.3c-5.1,0-10.7-3.9-10.7-12.4
	c0-9.2,4.9-13.7,13.4-13.7c4.7,0,8.7,1.6,11.1,2.9v-10.7c-2.7-1.2-7.1-2.9-13.1-2.9c-15.4,0-25.7,9.5-25.7,24.3
	C581.8,217.8,593.3,226.8,606,226.8"/>
<path class="st0" d="M694.9,226.5c13.5,0,22.6-8.6,22.6-23.7c0-15.1-9.1-23.7-22.6-23.7c-13.5,0-22.7,8.6-22.7,23.7
	C672.2,217.9,681.4,226.5,694.9,226.5 M694.9,214.9c-5.8,0-8.7-4.7-8.7-12.1c0-7.5,2.9-12.1,8.7-12.1c5.9,0,8.6,4.7,8.6,12.1
	C703.5,210.2,700.8,214.9,694.9,214.9"/>
<path class="st0" d="M742.4,225.9c10.7,0,19.5-5.1,19.5-17.8v-28.6h-13.1v27.4c0,5.1-2.8,7.4-6.5,7.4c-3.7,0-6.5-2.3-6.5-7.4v-27.4
	h-13.1v28.6C722.9,220.8,731.8,225.9,742.4,225.9"/>
<polygon class="st0" points="731.4,94.7 744.4,94.7 744.4,60 755.7,60 755.7,49.4 720,49.4 720,60 731.4,60 "/>
</svg>
