<?xml version="1.0" encoding="utf-8"?>
<!-- Generator: Adobe Illustrator 22.1.0, SVG Export Plug-In . SVG Version: 6.00 Build 0)  -->
<svg version="1.1" id="UCCS_Signature_-_Standard" xmlns="http://www.w3.org/2000/svg" xmlns:xlink="http://www.w3.org/1999/xlink"
	 x="0px" y="0px" viewBox="0 0 742 152" style="enable-background:new 0 0 742 152;" xml:space="preserve">
<style type="text/css">
	.st0{fill:#CFB87C;}
	.st1{fill:#FFFFFF;}
</style>
<g id="Wordmark_2_">
	<g>
		<path d="M274,36.9v20.5c0,1.9,0.2,3.6,0.6,4.9c0.4,1.3,1.1,2.5,1.9,3.3c0.8,0.9,1.9,1.5,3.1,1.9c1.2,0.4,2.6,0.6,4.1,0.6
			c1.6,0,2.9-0.2,4.1-0.6c1.2-0.4,2.2-1,3.1-1.9c0.8-0.8,1.5-2,1.9-3.3c0.4-1.3,0.6-3,0.6-4.9V36.9h3.2v21.2c0,1.7-0.2,3.3-0.7,4.9
			c-0.5,1.5-1.2,2.9-2.3,4c-1,1.1-2.4,2.1-4,2.7c-1.6,0.7-3.6,1-5.9,1c-2.3,0-4.3-0.3-5.9-1c-1.6-0.7-3-1.6-4-2.7
			c-1-1.1-1.8-2.5-2.3-4c-0.5-1.5-0.7-3.2-0.7-4.9V36.9H274z"/>
		<path d="M305.4,46.1v4.1h0.1c0.6-1.5,1.5-2.6,3-3.5c1.4-0.9,3-1.3,4.7-1.3c1.7,0,3.1,0.2,4.2,0.7c1.1,0.4,2,1,2.7,1.8
			c0.7,0.8,1.2,1.8,1.4,2.9c0.3,1.1,0.4,2.4,0.4,3.9v15.4H319v-15c0-1-0.1-2-0.3-2.9c-0.2-0.9-0.5-1.7-1-2.3
			c-0.5-0.7-1.1-1.2-1.9-1.5c-0.8-0.4-1.8-0.6-3-0.6c-1.2,0-2.2,0.2-3.1,0.6c-0.9,0.4-1.7,1-2.3,1.7c-0.6,0.7-1.1,1.6-1.5,2.6
			c-0.4,1-0.6,2.1-0.6,3.3v14h-2.9v-24H305.4z"/>
		<path d="M330.4,36.9v4.7h-2.9v-4.7H330.4z M330.4,46.1v24h-2.9v-24H330.4z"/>
		<path d="M336.6,46.1l7.5,21.1h0.1l7.4-21.1h3l-9,24h-3.1l-9.3-24H336.6z"/>
		<path d="M359.7,62.1c0.3,1.1,0.8,2.1,1.4,3c0.7,0.9,1.5,1.6,2.5,2.2c1,0.6,2.2,0.9,3.6,0.9c2.1,0,3.8-0.6,5-1.7
			c1.2-1.1,2-2.6,2.5-4.5h2.9c-0.6,2.7-1.8,4.8-3.4,6.3c-1.7,1.5-4,2.2-7,2.2c-1.9,0-3.5-0.3-4.9-1c-1.4-0.7-2.5-1.6-3.4-2.7
			c-0.9-1.2-1.5-2.5-1.9-4c-0.4-1.5-0.6-3.2-0.6-4.9c0-1.6,0.2-3.1,0.6-4.6c0.4-1.5,1.1-2.9,1.9-4.1c0.9-1.2,2-2.2,3.4-2.9
			c1.4-0.7,3-1.1,4.9-1.1c1.9,0,3.6,0.4,4.9,1.2c1.4,0.8,2.5,1.8,3.3,3c0.9,1.3,1.5,2.7,1.8,4.3c0.4,1.6,0.5,3.3,0.5,4.9h-18.5
			C359.3,59.9,359.4,61,359.7,62.1z M374.2,53.2c-0.4-1-0.9-1.9-1.5-2.7c-0.7-0.8-1.4-1.4-2.4-1.9c-0.9-0.5-2-0.7-3.2-0.7
			c-1.2,0-2.3,0.2-3.2,0.7c-0.9,0.5-1.7,1.1-2.4,1.9c-0.7,0.8-1.2,1.7-1.6,2.7c-0.4,1-0.6,2.1-0.8,3.2h15.5
			C374.8,55.3,374.6,54.2,374.2,53.2z"/>
		<path d="M384.4,46.1v5.6h0.1c0.7-2,1.9-3.5,3.5-4.5c1.6-1.1,3.4-1.5,5.6-1.4v2.9c-1.3-0.1-2.5,0.1-3.6,0.5c-1.1,0.4-2,1-2.8,1.8
			c-0.8,0.8-1.4,1.7-1.8,2.8c-0.4,1.1-0.7,2.2-0.7,3.5v12.8h-2.9v-24H384.4z"/>
		<path d="M410.1,50.7c-0.3-0.7-0.8-1.2-1.4-1.7c-0.6-0.4-1.2-0.8-2-1c-0.7-0.2-1.5-0.3-2.4-0.3c-0.6,0-1.3,0.1-2,0.2
			c-0.7,0.1-1.3,0.4-1.8,0.7c-0.6,0.3-1,0.8-1.4,1.3c-0.3,0.5-0.5,1.2-0.5,1.9c0,0.7,0.2,1.2,0.5,1.6c0.3,0.4,0.7,0.8,1.2,1.1
			c0.5,0.3,1,0.6,1.6,0.8c0.6,0.2,1.1,0.4,1.6,0.5l3.9,0.9c0.8,0.1,1.7,0.3,2.5,0.7c0.8,0.3,1.6,0.8,2.2,1.3c0.6,0.5,1.2,1.2,1.6,2
			c0.4,0.8,0.6,1.7,0.6,2.7c0,1.3-0.3,2.4-0.9,3.3c-0.6,0.9-1.3,1.7-2.3,2.2c-0.9,0.6-1.9,1-3.1,1.2c-1.2,0.2-2.3,0.4-3.4,0.4
			c-2.8,0-5.1-0.7-6.9-2c-1.8-1.3-2.8-3.5-3-6.4h2.9c0.1,2,0.8,3.5,2.2,4.5c1.3,1,3,1.5,4.9,1.5c0.7,0,1.5-0.1,2.2-0.2
			c0.8-0.2,1.5-0.4,2.1-0.8c0.7-0.4,1.2-0.8,1.6-1.4c0.4-0.6,0.6-1.3,0.6-2.1c0-0.7-0.1-1.3-0.4-1.8c-0.3-0.5-0.7-0.9-1.2-1.2
			c-0.5-0.3-1.1-0.6-1.7-0.8c-0.6-0.2-1.3-0.4-1.9-0.6l-3.8-0.8c-1-0.3-1.8-0.5-2.6-0.9c-0.8-0.3-1.5-0.7-2.1-1.2
			c-0.6-0.5-1.1-1.1-1.4-1.8c-0.3-0.7-0.5-1.6-0.5-2.6c0-1.2,0.3-2.2,0.8-3.1c0.5-0.9,1.2-1.6,2.1-2.1c0.9-0.5,1.8-0.9,2.9-1.2
			c1.1-0.2,2.1-0.4,3.2-0.4c1.2,0,2.3,0.2,3.4,0.5c1,0.3,2,0.8,2.7,1.4c0.8,0.6,1.4,1.5,1.9,2.4c0.5,1,0.7,2.1,0.8,3.4h-2.9
			C410.6,52.2,410.5,51.4,410.1,50.7z"/>
		<path d="M421.6,36.9v4.7h-2.9v-4.7H421.6z M421.6,46.1v24h-2.9v-24H421.6z"/>
		<path d="M436.8,46.1v2.5h-4.9v16.2c0,1,0.1,1.7,0.4,2.3c0.3,0.5,0.9,0.8,2,0.9c0.8,0,1.7,0,2.5-0.1v2.5c-0.4,0-0.9,0-1.3,0
			c-0.4,0-0.9,0-1.3,0c-2,0-3.3-0.4-4.1-1.1c-0.8-0.8-1.1-2.2-1.1-4.2V48.5h-4.2v-2.5h4.2v-7.2h2.9v7.2H436.8z"/>
		<path d="M441.4,46.1l7.9,20.5l7.4-20.5h2.9l-10.4,27.6c-0.4,1-0.8,1.9-1.2,2.5c-0.4,0.7-0.8,1.2-1.2,1.6c-0.5,0.4-1,0.7-1.6,0.8
			c-0.6,0.2-1.4,0.3-2.3,0.3c-0.6,0-1-0.1-1.4-0.1c-0.3,0-0.6-0.1-0.9-0.2v-2.5c0.3,0.1,0.7,0.1,1,0.2c0.3,0,0.7,0.1,1,0.1
			c0.7,0,1.2-0.1,1.6-0.3c0.4-0.2,0.8-0.4,1.1-0.8c0.3-0.3,0.6-0.7,0.8-1.2c0.2-0.5,0.4-1,0.7-1.5l1-2.7l-9.6-23.9H441.4z"/>
		<path d="M490.4,46.4c1.4,0.7,2.6,1.6,3.6,2.7c1,1.2,1.7,2.5,2.2,4c0.5,1.5,0.8,3.2,0.8,4.9c0,1.7-0.2,3.4-0.8,4.9
			c-0.5,1.5-1.2,2.9-2.2,4c-1,1.1-2.1,2.1-3.6,2.7c-1.4,0.7-3,1-4.9,1c-1.8,0-3.4-0.3-4.9-1c-1.4-0.7-2.6-1.6-3.6-2.7
			c-1-1.1-1.7-2.5-2.2-4c-0.5-1.5-0.7-3.2-0.7-4.9c0-1.7,0.3-3.4,0.7-4.9c0.5-1.5,1.2-2.9,2.2-4c1-1.1,2.1-2.1,3.6-2.7
			c1.4-0.7,3-1,4.9-1C487.4,45.4,489,45.7,490.4,46.4z M481.9,48.7c-1.1,0.6-1.9,1.4-2.6,2.3c-0.7,1-1.2,2.1-1.6,3.3
			c-0.4,1.2-0.5,2.5-0.5,3.7c0,1.3,0.2,2.5,0.5,3.7c0.4,1.2,0.9,2.3,1.6,3.3c0.7,1,1.6,1.7,2.6,2.3c1,0.6,2.3,0.9,3.7,0.9
			c1.4,0,2.6-0.3,3.7-0.9c1.1-0.6,1.9-1.4,2.6-2.3c0.7-1,1.2-2,1.6-3.3c0.4-1.2,0.5-2.5,0.5-3.7c0-1.3-0.2-2.5-0.5-3.7
			c-0.4-1.2-0.9-2.3-1.6-3.3c-0.7-1-1.6-1.7-2.6-2.3c-1-0.6-2.3-0.9-3.7-0.9C484.2,47.8,483,48.1,481.9,48.7z"/>
		<path d="M505.8,48.5v21.5h-2.9V48.5h-4.1v-2.5h4.1v-2.2c0-1,0.1-2,0.2-2.8c0.2-0.9,0.4-1.6,0.9-2.2c0.4-0.6,1-1.1,1.8-1.4
			c0.8-0.3,1.7-0.5,2.9-0.5c0.4,0,0.8,0,1.2,0c0.4,0,0.8,0.1,1.3,0.1v2.5c-0.4-0.1-0.8-0.1-1.1-0.2c-0.3,0-0.7-0.1-1-0.1
			c-0.8,0-1.4,0.1-1.9,0.4c-0.4,0.3-0.8,0.6-1,1c-0.2,0.4-0.3,0.9-0.4,1.5c0,0.6,0,1.2,0,1.8v2.1h4.7v2.5H505.8z"/>
		<path d="M549.7,43.5c-0.6-1-1.4-1.9-2.3-2.5c-0.9-0.7-1.9-1.2-3-1.6c-1.1-0.4-2.3-0.5-3.5-0.5c-2.2,0-4.1,0.4-5.7,1.3
			c-1.6,0.8-2.9,1.9-3.9,3.3c-1,1.4-1.8,2.9-2.2,4.7c-0.5,1.7-0.7,3.5-0.7,5.3c0,1.8,0.2,3.6,0.7,5.3c0.5,1.8,1.2,3.3,2.2,4.7
			c1,1.4,2.3,2.5,3.9,3.3c1.6,0.8,3.5,1.3,5.7,1.3c1.5,0,2.9-0.3,4.2-0.8c1.2-0.6,2.3-1.3,3.2-2.3c0.9-1,1.6-2.1,2.2-3.4
			c0.6-1.3,0.9-2.7,1.1-4.2h3.2c-0.2,2-0.7,3.9-1.4,5.5c-0.7,1.6-1.7,3-2.9,4.2c-1.2,1.1-2.6,2-4.2,2.6c-1.6,0.6-3.4,0.9-5.3,0.9
			c-2.6,0-4.9-0.5-6.9-1.4c-2-0.9-3.6-2.2-4.9-3.8c-1.3-1.6-2.3-3.4-2.9-5.5c-0.6-2.1-1-4.3-1-6.6c0-2.3,0.3-4.5,1-6.6
			c0.7-2.1,1.6-3.9,2.9-5.5c1.3-1.6,2.9-2.9,4.9-3.8c2-0.9,4.2-1.4,6.9-1.4c1.6,0,3.1,0.2,4.6,0.7c1.5,0.5,2.9,1.2,4.1,2.1
			c1.2,0.9,2.2,2,3.1,3.4c0.8,1.3,1.3,2.9,1.6,4.6h-3.2C550.8,45.6,550.3,44.5,549.7,43.5z"/>
		<path d="M574,46.4c1.4,0.7,2.6,1.6,3.6,2.7c1,1.2,1.7,2.5,2.2,4c0.5,1.5,0.7,3.2,0.7,4.9c0,1.7-0.2,3.4-0.7,4.9
			c-0.5,1.5-1.2,2.9-2.2,4c-1,1.1-2.1,2.1-3.6,2.7c-1.4,0.7-3,1-4.9,1c-1.8,0-3.4-0.3-4.9-1c-1.4-0.7-2.6-1.6-3.6-2.7
			c-1-1.1-1.7-2.5-2.2-4c-0.5-1.5-0.7-3.2-0.7-4.9c0-1.7,0.2-3.4,0.7-4.9c0.5-1.5,1.2-2.9,2.2-4c1-1.1,2.1-2.1,3.6-2.7
			c1.4-0.7,3-1,4.9-1C570.9,45.4,572.5,45.7,574,46.4z M565.4,48.7c-1.1,0.6-1.9,1.4-2.6,2.3c-0.7,1-1.2,2.1-1.6,3.3
			c-0.4,1.2-0.5,2.5-0.5,3.7c0,1.3,0.2,2.5,0.5,3.7c0.4,1.2,0.9,2.3,1.6,3.3c0.7,1,1.6,1.7,2.6,2.3c1.1,0.6,2.3,0.9,3.7,0.9
			c1.4,0,2.6-0.3,3.7-0.9c1.1-0.6,1.9-1.4,2.6-2.3c0.7-1,1.2-2,1.6-3.3c0.4-1.2,0.5-2.5,0.5-3.7c0-1.3-0.2-2.5-0.5-3.7
			c-0.4-1.2-0.9-2.3-1.6-3.3c-0.7-1-1.6-1.7-2.6-2.3c-1.1-0.6-2.3-0.9-3.7-0.9C567.7,47.8,566.5,48.1,565.4,48.7z"/>
		<path d="M587.8,36.9v16.9v16.3h-2.9V53.8V36.9H587.8z"/>
		<path d="M608.4,46.4c1.4,0.7,2.6,1.6,3.6,2.7c1,1.2,1.7,2.5,2.2,4c0.5,1.5,0.7,3.2,0.7,4.9c0,1.7-0.2,3.4-0.7,4.9
			c-0.5,1.5-1.2,2.9-2.2,4c-1,1.1-2.1,2.1-3.6,2.7c-1.4,0.7-3,1-4.9,1c-1.8,0-3.4-0.3-4.9-1c-1.4-0.7-2.6-1.6-3.6-2.7
			c-1-1.1-1.7-2.5-2.2-4c-0.5-1.5-0.7-3.2-0.7-4.9c0-1.7,0.2-3.4,0.7-4.9c0.5-1.5,1.2-2.9,2.2-4c1-1.1,2.1-2.1,3.6-2.7
			c1.4-0.7,3-1,4.9-1C605.4,45.4,607,45.7,608.4,46.4z M599.9,48.7c-1.1,0.6-1.9,1.4-2.6,2.3c-0.7,1-1.2,2.1-1.6,3.3
			c-0.4,1.2-0.5,2.5-0.5,3.7c0,1.3,0.2,2.5,0.5,3.7c0.4,1.2,0.9,2.3,1.6,3.3c0.7,1,1.6,1.7,2.6,2.3c1,0.6,2.3,0.9,3.7,0.9
			c1.4,0,2.6-0.3,3.7-0.9c1.1-0.6,1.9-1.4,2.6-2.3c0.7-1,1.2-2,1.6-3.3c0.4-1.2,0.5-2.5,0.5-3.7c0-1.3-0.2-2.5-0.5-3.7
			c-0.4-1.2-0.9-2.3-1.6-3.3c-0.7-1-1.6-1.7-2.6-2.3c-1.1-0.6-2.3-0.9-3.7-0.9C602.1,47.8,600.9,48.1,599.9,48.7z"/>
		<path d="M621.9,46.1v5.6h0.1c0.7-2,1.9-3.5,3.5-4.5c1.6-1.1,3.4-1.5,5.6-1.4v2.9c-1.3-0.1-2.5,0.1-3.6,0.5c-1.1,0.4-2,1-2.8,1.8
			c-0.8,0.8-1.4,1.7-1.8,2.8c-0.4,1.1-0.6,2.2-0.6,3.5v12.8h-2.9v-24H621.9z"/>
		<path d="M634.5,49.8c0.5-1,1.2-1.9,2-2.5c0.9-0.6,1.9-1.1,3-1.4c1.1-0.3,2.4-0.5,3.8-0.5c1,0,2.1,0.1,3.2,0.3
			c1.1,0.2,2,0.6,2.8,1.1c0.8,0.6,1.5,1.3,2,2.3c0.5,1,0.8,2.3,0.8,3.9v12.7c0,1.2,0.6,1.8,1.7,1.8c0.3,0,0.6-0.1,0.9-0.2v2.5
			c-0.3,0.1-0.6,0.1-0.9,0.1c-0.3,0-0.6,0-1,0c-0.7,0-1.3-0.1-1.8-0.3c-0.5-0.2-0.8-0.5-1-0.9c-0.2-0.4-0.4-0.8-0.5-1.3
			c-0.1-0.5-0.1-1.1-0.1-1.7h-0.1c-0.5,0.8-1.1,1.5-1.6,2.1c-0.5,0.6-1.2,1.1-1.8,1.5c-0.7,0.4-1.4,0.7-2.3,0.9
			c-0.9,0.2-1.9,0.3-3,0.3c-1.1,0-2.2-0.1-3.1-0.4c-1-0.3-1.8-0.7-2.6-1.3c-0.7-0.6-1.3-1.3-1.7-2.2c-0.4-0.9-0.6-1.9-0.6-3.1
			c0-1.7,0.4-3,1.1-3.9c0.7-0.9,1.7-1.7,3-2.2c1.2-0.5,2.6-0.8,4.1-1c1.5-0.2,3.1-0.4,4.7-0.6c0.6-0.1,1.2-0.1,1.6-0.2
			c0.5-0.1,0.8-0.3,1.2-0.5c0.3-0.2,0.6-0.6,0.7-1c0.2-0.4,0.3-0.9,0.3-1.6c0-1-0.2-1.8-0.5-2.4c-0.3-0.6-0.8-1.1-1.3-1.5
			c-0.6-0.4-1.2-0.6-2-0.8c-0.8-0.1-1.6-0.2-2.4-0.2c-1.9,0-3.4,0.4-4.6,1.3c-1.2,0.9-1.8,2.3-1.9,4.3h-2.9
			C633.7,52,634,50.8,634.5,49.8z M649.1,56.9c-0.2,0.3-0.5,0.6-1.1,0.7c-0.5,0.2-1,0.3-1.4,0.3c-1.2,0.2-2.5,0.4-3.8,0.6
			c-1.3,0.2-2.5,0.4-3.6,0.8c-1.1,0.3-2,0.8-2.7,1.5c-0.7,0.6-1,1.5-1,2.7c0,0.7,0.1,1.4,0.4,2c0.3,0.6,0.7,1.1,1.2,1.5
			c0.5,0.4,1.1,0.7,1.7,1c0.6,0.2,1.3,0.3,2,0.3c1.1,0,2.2-0.2,3.2-0.5c1-0.3,1.9-0.8,2.7-1.5c0.8-0.6,1.4-1.4,1.8-2.4
			c0.4-0.9,0.7-2,0.7-3.2L649.1,56.9L649.1,56.9z"/>
		<path d="M676.4,70.1v-4.6h-0.1c-0.3,0.8-0.8,1.5-1.4,2.1c-0.6,0.7-1.3,1.2-2.1,1.7c-0.8,0.4-1.6,0.8-2.5,1
			c-0.9,0.2-1.8,0.4-2.6,0.4c-1.8,0-3.4-0.3-4.8-1c-1.3-0.7-2.5-1.6-3.4-2.7c-0.9-1.2-1.6-2.5-2-4c-0.4-1.5-0.6-3.2-0.6-4.9
			c0-1.7,0.2-3.3,0.6-4.9c0.4-1.5,1.1-2.9,2-4c0.9-1.2,2-2.1,3.4-2.8c1.3-0.7,2.9-1,4.8-1c0.9,0,1.8,0.1,2.6,0.3
			c0.9,0.2,1.7,0.6,2.4,1c0.7,0.4,1.4,1,2,1.7c0.6,0.6,1,1.4,1.3,2.3h0.1V36.9h2.9v33.2H676.4z M660.4,61.8c0.3,1.2,0.8,2.3,1.4,3.3
			c0.6,1,1.5,1.7,2.4,2.4c1,0.6,2.2,0.9,3.6,0.9c1.6,0,2.9-0.3,3.9-0.9c1.1-0.6,1.9-1.4,2.6-2.4c0.7-1,1.1-2.1,1.4-3.3
			c0.3-1.2,0.4-2.5,0.4-3.7c0-1.2-0.2-2.5-0.4-3.7c-0.3-1.2-0.8-2.3-1.4-3.3c-0.7-1-1.5-1.7-2.6-2.3c-1.1-0.6-2.4-0.9-3.9-0.9
			c-1.4,0-2.6,0.3-3.6,0.9c-1,0.6-1.8,1.4-2.4,2.3c-0.6,1-1.1,2-1.4,3.3c-0.3,1.2-0.4,2.5-0.4,3.7C659.9,59.3,660.1,60.5,660.4,61.8
			z"/>
		<path d="M699.7,46.4c1.4,0.7,2.6,1.6,3.6,2.7c1,1.2,1.7,2.5,2.2,4c0.5,1.5,0.7,3.2,0.7,4.9c0,1.7-0.2,3.4-0.7,4.9
			c-0.5,1.5-1.2,2.9-2.2,4c-1,1.1-2.2,2.1-3.6,2.7c-1.4,0.7-3,1-4.9,1c-1.8,0-3.4-0.3-4.9-1c-1.4-0.7-2.6-1.6-3.6-2.7
			c-1-1.1-1.7-2.5-2.2-4c-0.5-1.5-0.7-3.2-0.7-4.9c0-1.7,0.2-3.4,0.7-4.9c0.5-1.5,1.2-2.9,2.2-4c1-1.1,2.1-2.1,3.6-2.7
			c1.4-0.7,3-1,4.9-1C696.6,45.4,698.3,45.7,699.7,46.4z M691.1,48.7c-1.1,0.6-1.9,1.4-2.6,2.3c-0.7,1-1.2,2.1-1.6,3.3
			c-0.4,1.2-0.5,2.5-0.5,3.7c0,1.3,0.2,2.5,0.5,3.7c0.4,1.2,0.9,2.3,1.6,3.3c0.7,1,1.6,1.7,2.6,2.3c1.1,0.6,2.3,0.9,3.7,0.9
			c1.4,0,2.6-0.3,3.7-0.9c1.1-0.6,1.9-1.4,2.6-2.3c0.7-1,1.2-2,1.6-3.3c0.4-1.2,0.5-2.5,0.5-3.7c0-1.3-0.2-2.5-0.5-3.7
			c-0.4-1.2-0.9-2.3-1.6-3.3c-0.7-1-1.6-1.7-2.6-2.3c-1.1-0.6-2.3-0.9-3.7-0.9C693.4,47.8,692.2,48.1,691.1,48.7z"/>
		<path d="M294.1,93.2c-0.6-1-1.4-1.9-2.3-2.5c-0.9-0.7-1.9-1.2-3-1.6c-1.1-0.4-2.3-0.5-3.5-0.5c-2.2,0-4.1,0.4-5.7,1.3
			c-1.6,0.8-2.9,1.9-3.9,3.3c-1,1.4-1.7,2.9-2.2,4.7c-0.5,1.7-0.7,3.5-0.7,5.3c0,1.8,0.2,3.6,0.7,5.3c0.5,1.8,1.2,3.3,2.2,4.7
			c1,1.4,2.3,2.5,3.9,3.3c1.6,0.8,3.5,1.3,5.7,1.3c1.5,0,2.9-0.3,4.2-0.8c1.2-0.6,2.3-1.3,3.2-2.3c0.9-1,1.6-2.1,2.2-3.4
			c0.6-1.3,0.9-2.7,1.1-4.2h3.2c-0.2,2-0.7,3.9-1.4,5.5c-0.7,1.6-1.7,3-2.9,4.2c-1.2,1.1-2.6,2-4.2,2.7c-1.6,0.6-3.4,0.9-5.3,0.9
			c-2.6,0-4.9-0.5-6.9-1.4c-2-0.9-3.6-2.2-4.9-3.8c-1.3-1.6-2.3-3.4-2.9-5.5c-0.6-2.1-1-4.3-1-6.6c0-2.3,0.3-4.5,1-6.6
			c0.7-2.1,1.6-3.9,2.9-5.5c1.3-1.6,2.9-2.9,4.9-3.8c2-0.9,4.3-1.4,6.9-1.4c1.6,0,3.1,0.2,4.6,0.7c1.5,0.5,2.9,1.2,4.1,2.1
			c1.2,0.9,2.2,2,3.1,3.4c0.8,1.3,1.3,2.9,1.6,4.6h-3.2C295.2,95.3,294.7,94.2,294.1,93.2z"/>
		<path d="M318.3,96.1c1.4,0.7,2.6,1.6,3.6,2.7c1,1.1,1.7,2.5,2.2,4c0.5,1.5,0.7,3.2,0.7,4.9c0,1.7-0.3,3.4-0.7,4.9
			c-0.5,1.5-1.2,2.9-2.2,4c-1,1.1-2.1,2.1-3.6,2.7c-1.4,0.7-3,1-4.9,1c-1.8,0-3.4-0.3-4.9-1c-1.4-0.7-2.6-1.6-3.6-2.7
			c-1-1.1-1.7-2.5-2.2-4c-0.5-1.5-0.7-3.2-0.7-4.9c0-1.7,0.2-3.4,0.7-4.9c0.5-1.5,1.2-2.9,2.2-4c1-1.1,2.1-2.1,3.6-2.7
			c1.4-0.7,3-1,4.9-1C315.3,95.1,316.9,95.4,318.3,96.1z M309.8,98.4c-1.1,0.6-1.9,1.4-2.6,2.3c-0.7,1-1.2,2.1-1.6,3.3
			c-0.4,1.2-0.5,2.5-0.5,3.7c0,1.3,0.2,2.5,0.5,3.7c0.4,1.2,0.9,2.3,1.6,3.3c0.7,1,1.6,1.7,2.6,2.3c1.1,0.6,2.3,0.9,3.7,0.9
			c1.4,0,2.6-0.3,3.7-0.9c1-0.6,1.9-1.4,2.6-2.3c0.7-1,1.2-2.1,1.6-3.3c0.4-1.2,0.5-2.5,0.5-3.7c0-1.3-0.2-2.5-0.5-3.7
			c-0.4-1.2-0.9-2.3-1.6-3.3c-0.7-1-1.6-1.7-2.6-2.3c-1.1-0.6-2.3-0.9-3.7-0.9C312.1,97.5,310.9,97.8,309.8,98.4z"/>
		<path d="M332.2,86.5v16v17.2h-2.9v-17.2V86.5H332.2z"/>
		<path d="M352.8,96.1c1.4,0.7,2.6,1.6,3.6,2.7c1,1.1,1.7,2.5,2.2,4c0.5,1.5,0.7,3.2,0.7,4.9c0,1.7-0.2,3.4-0.7,4.9
			c-0.5,1.5-1.2,2.9-2.2,4c-1,1.1-2.1,2.1-3.6,2.7c-1.4,0.7-3,1-4.9,1c-1.8,0-3.4-0.3-4.9-1c-1.4-0.7-2.6-1.6-3.6-2.7
			c-1-1.1-1.7-2.5-2.2-4c-0.5-1.5-0.7-3.2-0.7-4.9c0-1.7,0.2-3.4,0.7-4.9c0.5-1.5,1.2-2.9,2.2-4c1-1.1,2.1-2.1,3.6-2.7
			c1.4-0.7,3-1,4.9-1C349.8,95.1,351.4,95.4,352.8,96.1z M344.3,98.4c-1.1,0.6-1.9,1.4-2.6,2.3c-0.7,1-1.2,2.1-1.6,3.3
			c-0.4,1.2-0.5,2.5-0.5,3.7c0,1.3,0.2,2.5,0.5,3.7c0.4,1.2,0.9,2.3,1.6,3.3c0.7,1,1.6,1.7,2.6,2.3c1.1,0.6,2.3,0.9,3.7,0.9
			c1.4,0,2.6-0.3,3.7-0.9c1.1-0.6,1.9-1.4,2.6-2.3c0.7-1,1.2-2.1,1.6-3.3c0.4-1.2,0.5-2.5,0.5-3.7c0-1.3-0.2-2.5-0.5-3.7
			c-0.4-1.2-0.9-2.3-1.6-3.3c-0.7-1-1.6-1.7-2.6-2.3c-1.1-0.6-2.3-0.9-3.7-0.9C346.5,97.5,345.3,97.8,344.3,98.4z"/>
		<path d="M366.3,95.8v5.6h0.1c0.7-2,1.9-3.5,3.5-4.5c1.6-1.1,3.4-1.5,5.6-1.4v2.9c-1.3-0.1-2.5,0.1-3.6,0.5c-1.1,0.4-2,1-2.8,1.8
			c-0.8,0.8-1.4,1.7-1.8,2.8c-0.4,1.1-0.6,2.2-0.6,3.5v12.8h-2.9v-24H366.3z"/>
		<path d="M378.9,99.5c0.5-1,1.2-1.9,2-2.5c0.8-0.7,1.9-1.1,3-1.4c1.1-0.3,2.4-0.5,3.8-0.5c1.1,0,2.1,0.1,3.2,0.3
			c1.1,0.2,2,0.6,2.8,1.1c0.8,0.6,1.5,1.3,2,2.4c0.5,1,0.8,2.3,0.8,3.9v12.7c0,1.2,0.6,1.8,1.7,1.8c0.3,0,0.6-0.1,0.9-0.2v2.5
			c-0.3,0.1-0.6,0.1-0.9,0.1c-0.3,0-0.6,0-1,0c-0.7,0-1.3-0.1-1.8-0.3c-0.4-0.2-0.8-0.5-1-0.9c-0.2-0.4-0.4-0.8-0.5-1.3
			c-0.1-0.5-0.1-1.1-0.1-1.7h-0.1c-0.5,0.8-1.1,1.5-1.6,2.1c-0.5,0.6-1.1,1.1-1.8,1.5c-0.7,0.4-1.4,0.7-2.3,0.9
			c-0.9,0.2-1.9,0.3-3,0.3c-1.1,0-2.2-0.1-3.1-0.4c-1-0.3-1.8-0.7-2.6-1.3c-0.7-0.6-1.3-1.3-1.7-2.2c-0.4-0.9-0.6-1.9-0.6-3.1
			c0-1.7,0.4-3,1.1-3.9c0.7-0.9,1.7-1.7,3-2.2c1.2-0.5,2.6-0.8,4.1-1c1.5-0.2,3.1-0.4,4.7-0.6c0.6-0.1,1.2-0.1,1.6-0.2
			c0.5-0.1,0.8-0.3,1.2-0.5c0.3-0.2,0.5-0.6,0.7-1c0.2-0.4,0.3-0.9,0.3-1.6c0-1-0.2-1.8-0.5-2.4c-0.3-0.6-0.8-1.1-1.3-1.5
			c-0.6-0.4-1.2-0.6-2-0.8c-0.8-0.1-1.6-0.2-2.4-0.2c-1.9,0-3.4,0.4-4.6,1.3c-1.2,0.9-1.8,2.3-1.9,4.3H378
			C378.1,101.7,378.4,100.5,378.9,99.5z M393.5,106.6c-0.2,0.3-0.5,0.6-1.1,0.7c-0.5,0.2-1,0.3-1.4,0.3c-1.2,0.2-2.5,0.4-3.8,0.6
			c-1.3,0.2-2.5,0.4-3.6,0.8c-1.1,0.3-2,0.8-2.7,1.5c-0.7,0.6-1,1.5-1,2.7c0,0.7,0.1,1.4,0.4,2c0.3,0.6,0.7,1.1,1.2,1.5
			c0.5,0.4,1.1,0.7,1.7,1c0.7,0.2,1.3,0.3,2,0.3c1.1,0,2.2-0.2,3.2-0.5c1-0.3,1.9-0.8,2.7-1.5c0.8-0.6,1.4-1.4,1.8-2.4
			c0.4-0.9,0.7-2,0.7-3.2L393.5,106.6L393.5,106.6z"/>
		<path d="M420.8,119.7v-4.6h-0.1c-0.3,0.8-0.8,1.5-1.4,2.1c-0.6,0.7-1.3,1.2-2.1,1.7c-0.8,0.4-1.6,0.8-2.5,1
			c-0.9,0.2-1.8,0.4-2.6,0.4c-1.8,0-3.4-0.3-4.8-1c-1.3-0.7-2.5-1.6-3.4-2.7c-0.9-1.2-1.6-2.5-2-4c-0.4-1.5-0.7-3.2-0.7-4.9
			c0-1.7,0.2-3.3,0.7-4.9c0.4-1.5,1.1-2.9,2-4c0.9-1.2,2-2.1,3.4-2.8c1.3-0.7,2.9-1,4.8-1c0.9,0,1.8,0.1,2.6,0.3
			c0.8,0.2,1.6,0.6,2.4,1c0.7,0.5,1.4,1,2,1.7c0.6,0.6,1,1.4,1.3,2.3h0.1V86.5h2.9v33.2H420.8z M404.7,111.4
			c0.3,1.2,0.8,2.3,1.4,3.3c0.6,1,1.5,1.7,2.4,2.3c1,0.6,2.2,0.9,3.6,0.9c1.6,0,2.9-0.3,3.9-0.9c1.1-0.6,1.9-1.4,2.6-2.3
			c0.7-1,1.1-2.1,1.4-3.3c0.3-1.2,0.4-2.5,0.4-3.7c0-1.2-0.2-2.5-0.4-3.7c-0.3-1.2-0.8-2.3-1.4-3.3c-0.7-1-1.5-1.7-2.6-2.4
			c-1.1-0.6-2.4-0.9-3.9-0.9c-1.4,0-2.6,0.3-3.6,0.9c-1,0.6-1.8,1.4-2.4,2.4c-0.6,1-1.1,2.1-1.4,3.3c-0.3,1.2-0.4,2.5-0.4,3.7
			C404.3,109,404.4,110.2,404.7,111.4z"/>
		<path d="M444.1,96.1c1.4,0.7,2.6,1.6,3.6,2.7c1,1.1,1.7,2.5,2.2,4c0.5,1.5,0.7,3.2,0.7,4.9c0,1.7-0.3,3.4-0.7,4.9
			c-0.5,1.5-1.2,2.9-2.2,4c-1,1.1-2.1,2.1-3.6,2.7c-1.4,0.7-3,1-4.8,1c-1.8,0-3.4-0.3-4.9-1c-1.4-0.7-2.6-1.6-3.6-2.7
			c-1-1.1-1.7-2.5-2.2-4c-0.5-1.5-0.7-3.2-0.7-4.9c0-1.7,0.3-3.4,0.7-4.9c0.5-1.5,1.2-2.9,2.2-4c1-1.1,2.1-2.1,3.6-2.7
			c1.4-0.7,3-1,4.9-1C441,95.1,442.6,95.4,444.1,96.1z M435.5,98.4c-1.1,0.6-1.9,1.4-2.6,2.3c-0.7,1-1.2,2.1-1.6,3.3
			c-0.4,1.2-0.5,2.5-0.5,3.7c0,1.3,0.2,2.5,0.5,3.7c0.4,1.2,0.9,2.3,1.6,3.3c0.7,1,1.6,1.7,2.6,2.3c1.1,0.6,2.3,0.9,3.7,0.9
			c1.4,0,2.6-0.3,3.7-0.9c1-0.6,1.9-1.4,2.6-2.3c0.7-1,1.2-2.1,1.6-3.3c0.4-1.2,0.5-2.5,0.5-3.7c0-1.3-0.2-2.5-0.5-3.7
			c-0.4-1.2-0.9-2.3-1.6-3.3c-0.7-1-1.6-1.7-2.6-2.3c-1.1-0.6-2.3-0.9-3.7-0.9C437.8,97.5,436.6,97.8,435.5,98.4z"/>
		<path d="M470.7,113.1c0.6,1.1,1.3,2.1,2.3,2.7c1,0.7,2.1,1.2,3.5,1.5c1.3,0.3,2.8,0.4,4.3,0.4c0.9,0,1.8-0.1,2.8-0.4
			c1-0.2,2-0.6,2.9-1.2c0.9-0.5,1.6-1.2,2.2-2.1c0.6-0.8,0.9-1.9,0.9-3.1c0-0.9-0.2-1.7-0.6-2.4c-0.4-0.7-1-1.3-1.6-1.7
			c-0.7-0.5-1.4-0.8-2.2-1.1c-0.8-0.3-1.6-0.5-2.4-0.7l-7.4-1.8c-1-0.3-1.9-0.6-2.8-0.9c-0.9-0.4-1.7-0.9-2.4-1.5
			c-0.7-0.6-1.2-1.4-1.6-2.3c-0.4-0.9-0.6-2-0.6-3.3c0-0.8,0.2-1.8,0.5-2.8c0.3-1.1,0.9-2.1,1.7-3.1c0.9-1,2-1.8,3.5-2.4
			c1.5-0.7,3.4-1,5.7-1c1.6,0,3.2,0.2,4.7,0.6c1.5,0.4,2.8,1.1,3.9,2c1.1,0.9,2,1.9,2.7,3.2c0.7,1.3,1,2.8,1,4.5h-3.2
			c-0.1-1.3-0.3-2.4-0.9-3.3c-0.5-0.9-1.2-1.7-2-2.4c-0.8-0.6-1.8-1.1-2.8-1.4c-1.1-0.3-2.2-0.5-3.4-0.5c-1.1,0-2.1,0.1-3.1,0.3
			c-1,0.2-1.9,0.6-2.6,1.1c-0.8,0.5-1.4,1.2-1.8,2c-0.5,0.8-0.7,1.9-0.7,3.1c0,0.8,0.1,1.4,0.4,2c0.3,0.6,0.6,1.1,1.1,1.5
			c0.5,0.4,1,0.7,1.6,1c0.6,0.2,1.2,0.5,1.9,0.6l8.1,2c1.2,0.3,2.3,0.7,3.3,1.1c1,0.4,2,1,2.7,1.7c0.8,0.7,1.4,1.5,1.9,2.4
			c0.4,1,0.7,2.1,0.7,3.5c0,0.4,0,0.9-0.1,1.5c-0.1,0.6-0.3,1.3-0.6,2c-0.3,0.7-0.7,1.4-1.3,2.1c-0.5,0.7-1.3,1.4-2.2,1.9
			c-0.9,0.6-2.1,1-3.5,1.4c-1.4,0.4-3.1,0.5-5,0.5c-2,0-3.8-0.2-5.4-0.7c-1.7-0.5-3.1-1.1-4.3-2.1c-1.2-0.9-2.1-2.1-2.7-3.6
			c-0.6-1.5-0.9-3.2-0.8-5.2h3.2C469.8,110.5,470.1,111.9,470.7,113.1z"/>
		<path d="M499.8,95.8v4.6h0.1c0.7-1.7,1.8-3,3.3-3.9c1.5-0.9,3.3-1.4,5.2-1.4c1.8,0,3.4,0.3,4.8,1c1.4,0.7,2.5,1.6,3.4,2.8
			c0.9,1.2,1.6,2.5,2,4c0.4,1.5,0.6,3.2,0.6,4.9c0,1.7-0.2,3.3-0.6,4.9c-0.4,1.5-1.1,2.9-2,4c-0.9,1.2-2,2.1-3.4,2.7
			c-1.3,0.7-2.9,1-4.8,1c-0.9,0-1.7-0.1-2.6-0.3c-0.9-0.2-1.7-0.5-2.4-1c-0.7-0.4-1.4-1-2-1.6c-0.6-0.7-1-1.4-1.3-2.3H500v13.4h-2.9
			V95.8H499.8z M515.9,104c-0.3-1.2-0.8-2.3-1.4-3.3c-0.6-1-1.4-1.7-2.4-2.4c-1-0.6-2.2-0.9-3.6-0.9c-1.6,0-3,0.3-4,0.8
			c-1.1,0.6-2,1.3-2.6,2.2c-0.7,0.9-1.1,2-1.4,3.3c-0.3,1.2-0.4,2.5-0.4,3.9c0,1.2,0.1,2.5,0.4,3.7c0.3,1.2,0.8,2.3,1.4,3.3
			c0.7,1,1.5,1.7,2.6,2.3c1.1,0.6,2.4,0.9,3.9,0.9c1.4,0,2.6-0.3,3.6-0.9c1-0.6,1.8-1.4,2.4-2.3c0.6-1,1.1-2.1,1.4-3.3
			c0.3-1.2,0.4-2.5,0.4-3.7C516.3,106.5,516.2,105.3,515.9,104z"/>
		<path d="M526.5,95.8v5.6h0.1c0.7-2,1.9-3.5,3.5-4.5c1.6-1.1,3.4-1.5,5.6-1.4v2.9c-1.3-0.1-2.5,0.1-3.6,0.5c-1.1,0.4-2,1-2.8,1.8
			c-0.8,0.8-1.4,1.7-1.8,2.8c-0.4,1.1-0.6,2.2-0.6,3.5v12.8h-2.9v-24H526.5z"/>
		<path d="M541.4,86.5v4.7h-2.9v-4.7H541.4z M541.4,95.8v24h-2.9v-24H541.4z"/>
		<path d="M549.9,95.8v4.1h0.1c0.6-1.5,1.5-2.6,3-3.5c1.4-0.9,3-1.3,4.7-1.3c1.7,0,3.1,0.2,4.2,0.6c1.1,0.4,2,1,2.7,1.8
			c0.7,0.8,1.2,1.8,1.4,2.9c0.3,1.1,0.4,2.4,0.4,3.9v15.4h-2.9v-15c0-1-0.1-2-0.3-2.9c-0.2-0.9-0.5-1.7-1-2.3
			c-0.5-0.6-1.1-1.2-1.9-1.5c-0.8-0.4-1.8-0.6-2.9-0.6c-1.2,0-2.2,0.2-3.1,0.6c-0.9,0.4-1.7,1-2.3,1.7c-0.6,0.7-1.1,1.6-1.5,2.6
			c-0.4,1-0.5,2.1-0.6,3.3v14H547v-24H549.9z"/>
		<path d="M591.7,122.6c-0.4,1.4-1,2.6-1.8,3.6c-0.8,1-1.9,1.8-3.3,2.3c-1.3,0.5-3,0.8-5,0.8c-1.2,0-2.4-0.1-3.5-0.4
			c-1.1-0.3-2.2-0.7-3.1-1.3c-0.9-0.6-1.7-1.3-2.3-2.3c-0.6-0.9-1-2-1-3.3h2.9c0.2,0.9,0.5,1.7,0.9,2.3c0.4,0.6,1,1.1,1.6,1.5
			c0.6,0.4,1.3,0.6,2.1,0.8c0.8,0.2,1.6,0.3,2.4,0.3c2.7,0,4.7-0.8,5.9-2.3c1.2-1.6,1.8-3.8,1.8-6.7v-3.3h-0.1
			c-0.7,1.5-1.7,2.7-3,3.6c-1.3,0.9-2.9,1.3-4.6,1.3c-1.9,0-3.6-0.3-4.9-1c-1.4-0.6-2.5-1.5-3.4-2.6c-0.9-1.1-1.5-2.4-1.9-3.9
			c-0.4-1.5-0.6-3.1-0.6-4.8c0-1.6,0.2-3.2,0.7-4.7c0.5-1.5,1.2-2.8,2.1-3.9c0.9-1.1,2-2,3.4-2.6c1.3-0.6,2.9-1,4.6-1
			c0.9,0,1.7,0.1,2.5,0.4c0.8,0.3,1.5,0.6,2.2,1c0.6,0.5,1.2,1,1.7,1.6c0.5,0.6,0.9,1.2,1.2,1.9h0.1v-4.1h2.9v22
			C592.2,119.5,592.1,121.1,591.7,122.6z M584.9,116.2c1-0.5,1.8-1.3,2.4-2.1c0.6-0.9,1.1-1.9,1.5-3c0.3-1.1,0.5-2.3,0.5-3.5
			c0-1.2-0.1-2.4-0.4-3.5c-0.3-1.2-0.7-2.2-1.3-3.2c-0.6-1-1.4-1.7-2.4-2.3c-1-0.6-2.2-0.9-3.6-0.9c-1.4,0-2.6,0.3-3.6,0.9
			c-1,0.6-1.8,1.3-2.5,2.3c-0.7,0.9-1.1,2-1.4,3.2c-0.3,1.2-0.4,2.4-0.4,3.7c0,1.2,0.2,2.4,0.5,3.5c0.3,1.1,0.8,2.2,1.4,3
			c0.7,0.9,1.5,1.6,2.5,2.1c1,0.5,2.2,0.8,3.5,0.8C582.9,117,584,116.7,584.9,116.2z"/>
		<path d="M611.6,100.4c-0.3-0.7-0.8-1.2-1.4-1.6c-0.6-0.4-1.2-0.8-2-1c-0.7-0.2-1.5-0.3-2.4-0.3c-0.7,0-1.3,0.1-2,0.2
			c-0.7,0.1-1.3,0.4-1.8,0.7c-0.6,0.3-1,0.8-1.3,1.3c-0.3,0.5-0.5,1.2-0.5,2c0,0.6,0.2,1.2,0.5,1.6c0.3,0.4,0.7,0.8,1.2,1.1
			c0.5,0.3,1,0.6,1.6,0.8c0.6,0.2,1.1,0.4,1.6,0.5l3.9,0.9c0.8,0.1,1.7,0.3,2.5,0.7c0.8,0.3,1.5,0.7,2.2,1.3c0.6,0.5,1.2,1.2,1.6,2
			c0.4,0.8,0.6,1.7,0.6,2.7c0,1.3-0.3,2.4-0.9,3.3c-0.6,0.9-1.3,1.7-2.3,2.2c-0.9,0.6-1.9,1-3.1,1.2c-1.2,0.2-2.3,0.4-3.4,0.4
			c-2.8,0-5.1-0.7-6.9-2c-1.8-1.3-2.7-3.5-3-6.4h2.9c0.1,2,0.8,3.5,2.2,4.5c1.3,1,3,1.5,4.9,1.5c0.7,0,1.4-0.1,2.2-0.2
			c0.8-0.2,1.5-0.4,2.1-0.8c0.6-0.4,1.2-0.8,1.6-1.4c0.4-0.6,0.6-1.3,0.6-2.1c0-0.7-0.1-1.3-0.4-1.8c-0.3-0.5-0.7-0.9-1.2-1.2
			c-0.5-0.3-1.1-0.6-1.7-0.8c-0.6-0.2-1.3-0.4-1.9-0.6l-3.8-0.8c-1-0.2-1.8-0.5-2.7-0.9c-0.8-0.3-1.5-0.7-2.1-1.2
			c-0.6-0.5-1.1-1.1-1.4-1.8c-0.3-0.7-0.5-1.6-0.5-2.6c0-1.2,0.3-2.2,0.8-3.1c0.5-0.9,1.2-1.6,2.1-2.1c0.9-0.5,1.8-0.9,2.9-1.2
			c1.1-0.2,2.1-0.4,3.2-0.4c1.2,0,2.3,0.2,3.4,0.5c1,0.3,2,0.8,2.7,1.4c0.8,0.6,1.4,1.5,1.9,2.4c0.5,1,0.7,2.1,0.8,3.4h-2.9
			C612.1,101.9,612,101.1,611.6,100.4z"/>
	</g>
</g>
<g id="UCCS_Logo_-_Color_1_">
	<g id="Background_shape_1_">
		<polygon id="Black_background_1_" points="243.6,60.2 233.8,50.3 233.3,49.7 232.5,49.7 199.2,49.7 198.4,49.7 197.9,50.3 
			189.8,58.5 181.6,50.3 181.1,49.7 180.3,49.7 147.1,49.7 146.4,49.7 145.9,50.3 137.6,58.5 129.4,50.3 128.8,49.7 128.1,49.7 
			94.9,49.7 94.2,49.7 93.7,50.3 88.1,55.8 88.1,51.5 88.1,49.7 86.4,49.7 65.4,49.7 63.6,49.7 63.6,51.5 63.6,54.8 52.5,54.8 
			52.5,51.5 52.5,49.7 50.7,49.7 30,49.7 28.3,49.7 28.3,51.5 28.3,68.6 28.3,70.3 30,70.3 31.7,70.3 31.7,96.7 31.7,97.4 32.3,98 
			42.2,107.8 42.7,108.3 43.5,108.3 72.7,108.3 73.4,108.3 73.9,107.8 83.1,98.7 84.5,98.7 93.7,107.8 94.2,108.3 94.9,108.3 
			128.1,108.3 128.9,108.3 129.4,107.8 137.6,99.5 145.9,107.8 146.4,108.3 147.1,108.3 180.3,108.3 181.1,108.3 181.6,107.8 
			189.8,99.5 197.9,107.8 198.4,108.3 199.2,108.3 232.5,108.3 233.2,108.3 233.7,107.8 243.6,97.9 244.1,97.4 244.1,96.7 
			244.1,79.8 244.1,79 243.6,78.5 240,74.8 242.4,74.8 244.2,74.8 244.2,73.1 244.2,61.4 244.2,60.7 		"/>
		<path id="Gold_Stroke_1_" class="st0" d="M73.7,109.1H42.5l-0.7-0.7L31,97.7V71h-3.5V49h25.6v5h9.7v-5h26v5l5-5h35.3l8.5,8.5
			l8.5-8.5h35.3l8.4,8.5l8.3-8.5h35.4l11.3,11.4v15.2h-3.2l3.2,3.2v19L233.5,109h-35.4l-8.4-8.5l-8.4,8.5h-35.3l-8.5-8.5l-8.4,8.5
			H93.9l-0.7-0.7l-8.9-8.9h-0.9L73.7,109.1z M43,107.6h30.1l9.6-9.7h2.1l9.7,9.6h34.1l9-9.1l9.1,9.1h34.1l9-9.1l8.9,9.1h34.2
			l10.5-10.5V79.3l-5.2-5.2h5.2V61L233,50.5h-34.2l-8.9,9.1l-9-9.1h-34.1l-9.1,9.1l-9.1-9.1H94.5l-7,7v-7H64.3v5H51.8v-5H29v19.2
			h3.4v27.5L43,107.6z"/>
	</g>
	<g id="Gold_U_1_">
		<polygon id="Gold_U_2_" class="st0" points="44.8,103.2 36.8,95.3 36.8,65.2 33.4,65.2 33.4,54.8 47.4,54.8 47.4,92.7 68.7,92.7 
			68.7,54.8 83,54.8 83,65.2 79.3,65.2 79.3,95.3 71.3,103.2 		"/>
		<path id="White_Stroke_7_" class="st1" d="M82.3,55.6v8.8h-3.8V95l-7.5,7.5H45.2L37.6,95V64.4h-3.5v-8.8h12.5v37.8h22.9V55.6H82.3
			 M83.8,54.1h-1.5H69.5h-1.5v1.5v36.3H48.2V55.6v-1.5h-1.5H34.2h-1.5v1.5v8.8V66h1.5h1.9v29v0.6l0.5,0.5l7.5,7.5l0.4,0.5h0.6H71
			h0.6l0.5-0.5l7.5-7.5l0.4-0.5V95V66h2.2h1.5v-1.5v-8.8V54.1L83.8,54.1z"/>
	</g>
	<g id="Gold_C_4_">
		<polygon id="Gold_C_5_" class="st0" points="96.3,103.2 88.3,95.3 88.4,62.8 96.3,54.8 126.7,54.8 134.7,62.8 134.6,70.1 
			124,70.1 124,65.2 98.9,65.2 98.9,92.7 124,92.7 124,88.2 134.6,88.2 134.6,95.3 126.7,103.2 		"/>
		<path id="White_Stroke_6_" class="st1" d="M126.4,55.6l7.5,7.5l0,6.2h-9v-4.9H98.1v29h26.7V89h9v6l-7.4,7.5H96.6L89.1,95l0-31.9
			l7.5-7.5H126.4 M127.1,54.1h-0.6H96.6H96l-0.5,0.5L88,62l-0.4,0.5l0,0.6l0,31.9v0.6l0.5,0.5l7.5,7.5L96,104h0.6h29.8h0.6l0.5-0.5
			l7.4-7.5l0.5-0.5V95v-6v-1.5h-1.5h-9h-1.5V89v2.9H99.7V66h23.6v3.3v1.5h1.5h9h1.5l0-1.5l0-6.2l0-0.6L135,62l-7.5-7.5L127.1,54.1
			L127.1,54.1z"/>
	</g>
	<g id="Gold_C_2_">
		<polygon id="Gold_C_3_" class="st0" points="148.5,103.2 140.6,95.3 140.6,62.8 148.5,54.8 178.9,54.8 186.8,62.8 186.8,70.1 
			176.3,70.1 176.3,65.2 151,65.2 151,92.7 176.3,92.7 176.3,88.2 186.8,88.2 186.8,95.3 178.9,103.2 		"/>
		<path id="White_Stroke_5_" class="st1" d="M178.6,55.6l7.5,7.5l0,6.2h-9v-4.9h-26.8v29h26.8V89h9v6l-7.4,7.5h-29.8l-7.5-7.5
			l0-31.9l7.5-7.5H178.6 M179.3,54.1h-0.6h-29.8h-0.6l-0.4,0.5l-7.5,7.5l-0.4,0.5l0,0.6l0,31.9v0.6l0.5,0.5l7.5,7.5l0.4,0.5h0.6
			h29.8h0.6l0.5-0.5l7.4-7.5l0.4-0.5V95v-6v-1.5H186h-9h-1.5V89v2.9h-23.7V66h23.7v3.3v1.5h1.5h9h1.5l0-1.5l0-6.2v-0.6l-0.4-0.5
			l-7.5-7.5L179.3,54.1L179.3,54.1z"/>
	</g>
	<g id="Gold_S_1_">
		<polygon id="Gold_S_2_" class="st0" points="200.6,103.2 192.8,95.3 192.8,88.2 203.4,88.2 203.4,92.7 228.4,92.7 228.4,83.4 
			199.2,83.4 192.8,77 192.8,62.8 200.6,54.8 231.1,54.8 239,62.8 239,69.7 228.4,69.7 228.4,65.2 203.3,65.2 203.3,74.5 
			232.4,74.5 239,81.2 239,95.3 231.1,103.2 		"/>
		<path id="White_Stroke_4_" class="st1" d="M230.8,55.6l7.5,7.5V69h-9.1v-4.5h-26.7v10.8h29.5l6.2,6.2V95l-7.5,7.5h-29.9l-7.4-7.5
			v-6h9.1v4.4h26.6V82.6l-29.7,0l-6-6V63.1l7.4-7.5L230.8,55.6 M231.5,54.1h-0.6l-29.9,0l-0.6,0l-0.5,0.5l-7.4,7.5l-0.4,0.5v0.6
			v13.5v0.6l0.5,0.5l6,6l0.5,0.5h0.6l28.1,0v7.7h-23.5V89v-1.5h-1.5h-9.1H192V89v6v0.6l0.4,0.4l7.4,7.5l0.5,0.5h0.6h29.9h0.6
			l0.5-0.5l7.5-7.5l0.5-0.5V95V81.5v-0.6l-0.5-0.5l-6.2-6.2l-0.5-0.5h-0.6h-28V66h23.6v3v1.5h1.5h9.1h1.5V69v-5.9v-0.6l-0.4-0.5
			l-7.5-7.5L231.5,54.1L231.5,54.1z"/>
	</g>
</g>
</svg>
