<?xml version="1.0" encoding="utf-8"?>
<!-- Generator: Adobe Illustrator 22.1.0, SVG Export Plug-In . SVG Version: 6.00 Build 0)  -->
<svg version="1.1" id="UCCS_Signature_-_Standard" xmlns="http://www.w3.org/2000/svg" xmlns:xlink="http://www.w3.org/1999/xlink"
	 x="0px" y="0px" viewBox="0 0 1658.3 226.8" style="enable-background:new 0 0 1658.3 226.8;" xml:space="preserve">
<style type="text/css">
	.st0{fill:#CFB87C;}
	.st1{fill:#FFFFFF;}
</style>
<g id="Wordmark_2_">
	<g>
		<path d="M600.4,1.7v50c0,4.7,0.5,8.7,1.6,11.9c1.1,3.3,2.6,6,4.6,8c2,2.1,4.5,3.6,7.5,4.5c2.9,0.9,6.3,1.4,9.9,1.4
			c3.8,0,7.1-0.5,10.1-1.4c2.9-1,5.4-2.4,7.5-4.5c2-2.1,3.6-4.8,4.6-8c1.1-3.3,1.6-7.3,1.6-11.9v-50h7.7v51.7
			c0,4.2-0.6,8.1-1.7,11.8c-1.2,3.7-3,7-5.5,9.8c-2.5,2.8-5.8,5-9.7,6.6c-4,1.6-8.8,2.4-14.4,2.4c-5.6,0-10.4-0.8-14.3-2.4
			c-4-1.6-7.2-3.8-9.7-6.6c-2.5-2.8-4.4-6.1-5.5-9.8c-1.2-3.7-1.8-7.7-1.8-11.8V1.7H600.4z"/>
		<path d="M676.7,24.1v10.1h0.2c1.4-3.5,3.8-6.4,7.2-8.5c3.5-2.2,7.3-3.2,11.4-3.2c4.1,0,7.5,0.5,10.2,1.6c2.8,1.1,5,2.5,6.6,4.5
			c1.7,1.9,2.8,4.3,3.5,7.1c0.7,2.8,1,5.9,1,9.4v37.6h-7.1V46.1c0-2.5-0.2-4.8-0.7-7c-0.5-2.2-1.2-4-2.4-5.6
			c-1.1-1.6-2.7-2.8-4.6-3.7c-1.9-0.9-4.3-1.4-7.2-1.4c-2.9,0-5.4,0.5-7.6,1.5c-2.2,1-4.1,2.4-5.7,4.2c-1.5,1.8-2.8,3.9-3.6,6.3
			c-0.9,2.5-1.3,5.1-1.4,8v34.1h-7.1V24.1H676.7z"/>
		<path d="M737.7,1.7v11.4h-7.1V1.7H737.7z M737.7,24.1v58.4h-7.1V24.1H737.7z"/>
		<path d="M752.8,24.1l18.3,51.3h0.2l18.1-51.3h7.4l-21.9,58.4h-7.6l-22.5-58.4H752.8z"/>
		<path d="M809.1,63.2c0.7,2.8,1.9,5.2,3.5,7.4c1.6,2.2,3.6,4,6,5.4c2.4,1.4,5.3,2.1,8.7,2.1c5.2,0,9.3-1.4,12.2-4.1
			c2.9-2.7,5-6.3,6.1-10.9h7.1c-1.5,6.6-4.3,11.8-8.3,15.4c-4.1,3.6-9.8,5.4-17.2,5.4c-4.6,0-8.6-0.8-11.9-2.4
			c-3.4-1.6-6.1-3.8-8.2-6.7c-2.1-2.8-3.7-6.1-4.7-9.8c-1-3.7-1.5-7.7-1.5-11.8c0-3.8,0.5-7.6,1.5-11.3c1-3.7,2.6-7,4.7-9.9
			c2.1-2.9,4.8-5.2,8.2-7c3.4-1.8,7.3-2.7,11.9-2.7c4.7,0,8.7,1,12,2.8c3.3,1.9,6,4.4,8.1,7.4c2.1,3,3.6,6.6,4.5,10.5
			c0.9,4,1.3,8,1.1,12.1h-45C808,57.8,808.3,60.5,809.1,63.2z M844.4,41.4c-0.9-2.5-2.1-4.7-3.7-6.6c-1.6-1.9-3.5-3.5-5.8-4.6
			c-2.3-1.2-4.8-1.8-7.7-1.8c-3,0-5.5,0.6-7.8,1.8c-2.3,1.2-4.2,2.7-5.8,4.6c-1.6,1.9-2.9,4.1-3.8,6.7c-0.9,2.5-1.6,5.1-1.9,7.7
			h37.8C845.7,46.5,845.3,43.9,844.4,41.4z"/>
		<path d="M869.1,24.1v13.7h0.2c1.8-4.8,4.6-8.4,8.4-11c3.8-2.6,8.4-3.7,13.6-3.5v7.1c-3.2-0.1-6.2,0.3-8.8,1.3
			c-2.6,1-4.9,2.5-6.8,4.4c-1.9,1.9-3.4,4.1-4.5,6.7c-1.1,2.6-1.6,5.5-1.6,8.5v31.1h-7.1V24.1H869.1z"/>
		<path d="M931.9,35.5c-0.8-1.6-1.9-3-3.3-4c-1.4-1-3-1.8-4.8-2.3c-1.8-0.5-3.7-0.7-5.8-0.7c-1.6,0-3.2,0.2-4.8,0.5
			c-1.6,0.4-3.1,0.9-4.5,1.7c-1.4,0.8-2.5,1.8-3.3,3.1c-0.8,1.3-1.3,2.9-1.3,4.7c0,1.6,0.4,2.9,1.2,4c0.8,1.1,1.8,2,3,2.8
			c1.2,0.7,2.5,1.4,4,1.9c1.4,0.5,2.7,0.9,4,1.2l9.5,2.2c2,0.3,4.1,0.8,6.1,1.6c2,0.8,3.8,1.8,5.3,3.1c1.5,1.3,2.8,2.9,3.8,4.8
			c1,1.9,1.5,4.1,1.5,6.7c0,3.2-0.7,5.9-2.2,8.1c-1.4,2.2-3.3,4-5.5,5.4c-2.2,1.4-4.7,2.4-7.5,3c-2.8,0.6-5.6,0.9-8.3,0.9
			c-6.9,0-12.4-1.6-16.7-4.9c-4.3-3.2-6.7-8.4-7.3-15.6h7.1c0.3,4.8,2.1,8.5,5.3,10.9c3.2,2.5,7.2,3.7,11.9,3.7
			c1.7,0,3.5-0.2,5.4-0.6c1.9-0.4,3.6-1,5.2-1.9c1.6-0.9,2.9-2.1,3.9-3.5c1-1.4,1.5-3.1,1.5-5.1c0-1.7-0.3-3.2-1.1-4.4
			c-0.7-1.2-1.7-2.1-2.9-2.9c-1.2-0.8-2.6-1.4-4.1-2c-1.6-0.5-3.1-1-4.7-1.4l-9.2-2c-2.3-0.6-4.5-1.3-6.5-2.1
			c-2-0.8-3.7-1.8-5.1-2.9c-1.5-1.2-2.6-2.6-3.4-4.3c-0.8-1.7-1.3-3.8-1.3-6.3c0-2.9,0.7-5.5,2-7.6c1.3-2.1,3-3.8,5.1-5.1
			c2.1-1.3,4.5-2.2,7.1-2.8c2.6-0.6,5.2-0.9,7.8-0.9c2.9,0,5.7,0.4,8.2,1.1c2.5,0.8,4.8,1.9,6.7,3.5c1.9,1.6,3.5,3.5,4.6,5.9
			c1.1,2.3,1.8,5.1,1.9,8.3h-7.1C933.1,39,932.7,37.1,931.9,35.5z"/>
		<path d="M959.9,1.7v11.4h-7.1V1.7H959.9z M959.9,24.1v58.4h-7.1V24.1H959.9z"/>
		<path d="M996.8,24.1v6H985v39.4c0,2.3,0.3,4.2,1,5.5c0.6,1.3,2.2,2.1,4.8,2.2c2,0,4.1-0.1,6.1-0.3v6c-1.1,0-2.1,0-3.2,0.1
			c-1,0.1-2.1,0.1-3.2,0.1c-4.8,0-8.1-0.9-10-2.8c-1.9-1.8-2.8-5.3-2.7-10.2v-40h-10.2v-6h10.2V6.6h7.1v17.5H996.8z"/>
		<path d="M1008.2,24.1l19.2,49.8l18-49.8h7.1l-25.4,67.3c-1.1,2.5-2,4.5-2.9,6.2c-0.9,1.6-1.9,2.9-3,3.9c-1.1,0.9-2.4,1.6-3.9,2
			c-1.5,0.4-3.3,0.6-5.6,0.6c-1.4-0.1-2.5-0.1-3.3-0.2c-0.8,0-1.5-0.2-2.1-0.4v-6c0.8,0.1,1.6,0.3,2.4,0.4c0.8,0.1,1.6,0.2,2.4,0.2
			c1.6,0,2.9-0.2,3.9-0.7c1-0.5,1.9-1.1,2.7-1.9c0.7-0.8,1.4-1.8,1.9-2.9c0.5-1.1,1.1-2.4,1.7-3.7l2.5-6.6l-23.3-58.2H1008.2z"/>
		<path d="M1127.5,24.9c3.4,1.7,6.3,3.9,8.7,6.7c2.3,2.8,4.1,6.1,5.3,9.8c1.2,3.7,1.8,7.7,1.8,11.9c0,4.2-0.6,8.2-1.8,11.9
			c-1.2,3.7-3,7-5.3,9.8c-2.3,2.8-5.2,5-8.7,6.6c-3.4,1.6-7.4,2.4-11.8,2.4c-4.4,0-8.4-0.8-11.8-2.4c-3.4-1.6-6.3-3.8-8.7-6.6
			c-2.4-2.8-4.1-6.1-5.3-9.8c-1.2-3.7-1.8-7.7-1.8-11.9c0-4.2,0.6-8.2,1.8-11.9c1.2-3.7,3-7,5.3-9.8c2.3-2.8,5.2-5,8.7-6.7
			c3.4-1.7,7.4-2.5,11.8-2.5C1120.2,22.4,1124.1,23.2,1127.5,24.9z M1106.8,30.6c-2.6,1.4-4.7,3.3-6.4,5.7c-1.7,2.3-3,5-3.8,8
			c-0.9,3-1.3,6-1.3,9.1c0,3.1,0.4,6.1,1.3,9.1c0.9,3,2.2,5.6,3.8,8c1.7,2.4,3.8,4.2,6.4,5.7c2.6,1.4,5.5,2.1,8.9,2.1
			c3.4,0,6.4-0.7,8.9-2.1c2.6-1.4,4.7-3.3,6.4-5.7c1.7-2.3,3-5,3.8-8c0.9-3,1.3-6,1.3-9.1c0-3.1-0.5-6.1-1.3-9.1
			c-0.9-3-2.2-5.6-3.8-8c-1.7-2.3-3.8-4.2-6.4-5.7c-2.6-1.4-5.5-2.2-8.9-2.2C1112.3,28.4,1109.3,29.1,1106.8,30.6z"/>
		<path d="M1165,30.1v52.4h-7.1V30.1h-10v-6h10v-5.3c0-2.5,0.2-4.8,0.6-6.9c0.4-2.1,1.1-3.9,2.2-5.4c1-1.5,2.5-2.7,4.4-3.5
			c1.8-0.8,4.2-1.3,7.1-1.3c1.1,0,2,0,3,0.1c0.9,0.1,1.9,0.2,3.1,0.3v6.1c-1-0.2-1.9-0.3-2.7-0.4c-0.8-0.1-1.7-0.2-2.5-0.2
			c-2,0-3.5,0.3-4.5,0.9c-1.1,0.6-1.8,1.4-2.3,2.4c-0.5,1-0.8,2.2-0.9,3.6c-0.1,1.4-0.1,2.8-0.1,4.4v5.1h11.5v6H1165z"/>
		<path d="M1271.9,17.8c-1.5-2.4-3.4-4.5-5.7-6.2c-2.2-1.7-4.7-2.9-7.4-3.8c-2.7-0.9-5.5-1.3-8.4-1.3c-5.4,0-9.9,1-13.8,3.1
			c-3.8,2-7,4.7-9.4,8.1c-2.5,3.4-4.3,7.2-5.4,11.4c-1.2,4.2-1.8,8.6-1.8,13c0,4.4,0.6,8.7,1.8,13c1.2,4.3,3,8.1,5.4,11.4
			c2.4,3.4,5.6,6.1,9.4,8.1c3.9,2,8.4,3.1,13.8,3.1c3.8,0,7.2-0.7,10.2-2c3-1.4,5.6-3.2,7.8-5.5c2.2-2.3,4-5.1,5.3-8.2
			c1.4-3.1,2.2-6.5,2.6-10.1h7.7c-0.5,5-1.7,9.5-3.5,13.5c-1.8,4-4.2,7.4-7,10.2c-2.9,2.8-6.2,4.9-10.1,6.4c-3.9,1.5-8.2,2.3-13,2.3
			c-6.3,0-11.9-1.1-16.7-3.4c-4.8-2.3-8.8-5.4-11.9-9.2c-3.2-3.9-5.5-8.3-7.1-13.4c-1.6-5.1-2.4-10.4-2.4-16c0-5.6,0.8-10.9,2.4-16
			c1.6-5.1,4-9.5,7.1-13.4c3.2-3.9,7.2-7,11.9-9.3c4.8-2.3,10.4-3.5,16.7-3.5c3.8,0,7.6,0.6,11.3,1.7c3.6,1.1,7,2.8,10,5
			c3,2.2,5.5,5,7.5,8.2c2,3.3,3.3,7,3.8,11.2h-7.7C1274.6,23.1,1273.4,20.3,1271.9,17.8z"/>
		<path d="M1331,24.9c3.4,1.7,6.3,3.9,8.7,6.7c2.3,2.8,4.1,6.1,5.3,9.8c1.2,3.7,1.8,7.7,1.8,11.9c0,4.2-0.6,8.2-1.8,11.9
			c-1.2,3.7-3,7-5.3,9.8c-2.4,2.8-5.2,5-8.7,6.6c-3.4,1.6-7.4,2.4-11.8,2.4c-4.4,0-8.4-0.8-11.8-2.4c-3.4-1.6-6.3-3.8-8.7-6.6
			c-2.3-2.8-4.1-6.1-5.3-9.8c-1.2-3.7-1.8-7.7-1.8-11.9c0-4.2,0.6-8.2,1.8-11.9c1.2-3.7,3-7,5.3-9.8c2.3-2.8,5.2-5,8.7-6.7
			c3.4-1.7,7.4-2.5,11.8-2.5C1323.6,22.4,1327.5,23.2,1331,24.9z M1310.2,30.6c-2.6,1.4-4.7,3.3-6.4,5.7c-1.7,2.3-3,5-3.8,8
			c-0.9,3-1.3,6-1.3,9.1c0,3.1,0.4,6.1,1.3,9.1c0.9,3,2.2,5.6,3.8,8c1.7,2.4,3.8,4.2,6.4,5.7c2.6,1.4,5.5,2.1,8.9,2.1
			c3.4,0,6.4-0.7,8.9-2.1c2.6-1.4,4.7-3.3,6.4-5.7c1.7-2.3,3-5,3.8-8c0.9-3,1.3-6,1.3-9.1c0-3.1-0.4-6.1-1.3-9.1
			c-0.9-3-2.1-5.6-3.8-8c-1.7-2.3-3.8-4.2-6.4-5.7c-2.6-1.4-5.5-2.2-8.9-2.2C1315.8,28.4,1312.8,29.1,1310.2,30.6z"/>
		<path d="M1364.7,1.7v41.2v39.6h-7.1V42.9V1.7H1364.7z"/>
		<path d="M1414.9,24.9c3.4,1.7,6.3,3.9,8.7,6.7c2.3,2.8,4.1,6.1,5.3,9.8c1.2,3.7,1.8,7.7,1.8,11.9c0,4.2-0.6,8.2-1.8,11.9
			c-1.2,3.7-3,7-5.3,9.8c-2.4,2.8-5.2,5-8.7,6.6c-3.4,1.6-7.4,2.4-11.8,2.4c-4.5,0-8.4-0.8-11.8-2.4c-3.4-1.6-6.3-3.8-8.7-6.6
			c-2.3-2.8-4.1-6.1-5.3-9.8c-1.2-3.7-1.8-7.7-1.8-11.9c0-4.2,0.6-8.2,1.8-11.9c1.2-3.7,3-7,5.3-9.8c2.3-2.8,5.2-5,8.7-6.7
			c3.4-1.7,7.4-2.5,11.8-2.5C1407.5,22.4,1411.4,23.2,1414.9,24.9z M1394.1,30.6c-2.6,1.4-4.7,3.3-6.4,5.7c-1.7,2.3-3,5-3.9,8
			c-0.9,3-1.3,6-1.3,9.1c0,3.1,0.4,6.1,1.3,9.1c0.9,3,2.2,5.6,3.9,8c1.7,2.4,3.8,4.2,6.4,5.7c2.6,1.4,5.5,2.1,8.9,2.1
			c3.4,0,6.4-0.7,8.9-2.1c2.6-1.4,4.7-3.3,6.4-5.7c1.7-2.3,3-5,3.9-8c0.9-3,1.3-6,1.3-9.1c0-3.1-0.4-6.1-1.3-9.1
			c-0.9-3-2.2-5.6-3.9-8c-1.7-2.3-3.8-4.2-6.4-5.7c-2.6-1.4-5.5-2.2-8.9-2.2C1399.6,28.4,1396.7,29.1,1394.1,30.6z"/>
		<path d="M1447.9,24.1v13.7h0.2c1.8-4.8,4.6-8.4,8.4-11c3.8-2.6,8.4-3.7,13.6-3.5v7.1c-3.2-0.1-6.2,0.3-8.8,1.3
			c-2.6,1-4.9,2.5-6.8,4.4c-1.9,1.9-3.4,4.1-4.5,6.7c-1.1,2.6-1.6,5.5-1.6,8.5v31.1h-7.1V24.1H1447.9z"/>
		<path d="M1478.5,33.2c1.2-2.5,2.8-4.5,4.9-6.1c2.1-1.6,4.5-2.8,7.3-3.5c2.8-0.7,5.9-1.1,9.3-1.1c2.6,0,5.1,0.2,7.7,0.7
			c2.6,0.5,4.9,1.4,6.9,2.8c2,1.4,3.7,3.3,5,5.7c1.3,2.5,1.9,5.6,1.9,9.6v31c0,2.9,1.4,4.3,4.2,4.3c0.8,0,1.6-0.1,2.3-0.5v6
			c-0.8,0.2-1.6,0.3-2.2,0.3c-0.7,0.1-1.5,0.1-2.4,0.1c-1.8,0-3.3-0.2-4.4-0.7c-1.1-0.5-2-1.2-2.6-2.1c-0.6-0.9-1-2-1.2-3.2
			c-0.2-1.2-0.3-2.6-0.3-4.1h-0.2c-1.3,1.9-2.6,3.6-3.9,5c-1.3,1.5-2.8,2.7-4.4,3.7c-1.6,1-3.5,1.7-5.5,2.3
			c-2.1,0.5-4.5,0.8-7.4,0.8c-2.7,0-5.3-0.3-7.6-1c-2.4-0.6-4.5-1.7-6.2-3.1c-1.8-1.4-3.2-3.2-4.2-5.3c-1-2.2-1.5-4.7-1.5-7.6
			c0-4.1,0.9-7.3,2.7-9.6c1.8-2.3,4.2-4.1,7.2-5.3c3-1.2,6.3-2.1,10.1-2.5c3.7-0.5,7.5-1,11.4-1.4c1.5-0.2,2.8-0.3,4-0.6
			c1.1-0.2,2.1-0.6,2.8-1.2c0.8-0.6,1.4-1.4,1.8-2.3c0.4-1,0.6-2.3,0.6-3.8c0-2.4-0.4-4.4-1.2-5.9c-0.8-1.6-1.9-2.8-3.3-3.7
			c-1.4-0.9-3-1.5-4.9-1.9c-1.9-0.3-3.8-0.5-6-0.5c-4.5,0-8.2,1.1-11.1,3.2c-2.9,2.1-4.4,5.6-4.5,10.4h-7.1
			C1476.5,38.6,1477.2,35.7,1478.5,33.2z M1514.1,50.6c-0.5,0.8-1.3,1.4-2.6,1.8c-1.3,0.4-2.4,0.6-3.4,0.8c-3,0.5-6.1,1-9.3,1.4
			c-3.2,0.4-6.1,1-8.8,1.9c-2.7,0.8-4.8,2-6.5,3.6c-1.7,1.5-2.5,3.7-2.5,6.6c0,1.8,0.4,3.4,1.1,4.8c0.7,1.4,1.7,2.6,2.9,3.6
			c1.2,1,2.6,1.8,4.2,2.3c1.6,0.5,3.2,0.8,4.9,0.8c2.7,0,5.3-0.4,7.8-1.2c2.5-0.8,4.7-2,6.5-3.6c1.8-1.6,3.3-3.5,4.4-5.8
			c1.1-2.3,1.6-4.8,1.6-7.7v-9.3H1514.1z"/>
		<path d="M1580.6,82.5V71.4h-0.2c-0.8,1.9-1.9,3.6-3.4,5.2c-1.5,1.6-3.1,2.9-5,4c-1.9,1.1-3.9,1.9-6,2.6c-2.1,0.6-4.3,0.9-6.4,0.9
			c-4.4,0-8.3-0.8-11.6-2.4c-3.3-1.6-6-3.8-8.2-6.7c-2.2-2.8-3.8-6.1-4.9-9.8c-1-3.7-1.6-7.7-1.6-11.8c0-4.2,0.5-8.1,1.6-11.8
			c1.1-3.7,2.7-7,4.9-9.9c2.2-2.8,4.9-5.1,8.2-6.7c3.3-1.7,7.2-2.5,11.6-2.5c2.2,0,4.3,0.3,6.4,0.8c2.1,0.5,4,1.3,5.8,2.4
			c1.8,1.1,3.4,2.4,4.8,4c1.4,1.6,2.5,3.4,3.2,5.5h0.2V1.7h7.1v80.8H1580.6z M1541.4,62.3c0.7,3,1.9,5.7,3.4,8
			c1.5,2.3,3.5,4.3,5.9,5.7c2.4,1.5,5.3,2.2,8.7,2.2c3.8,0,7-0.7,9.6-2.2c2.6-1.5,4.7-3.4,6.3-5.7c1.6-2.3,2.8-5,3.5-8
			c0.7-3,1.1-6,1.1-9c0-3-0.4-6-1.1-9c-0.7-3-1.9-5.6-3.5-8c-1.6-2.3-3.7-4.2-6.3-5.7c-2.6-1.5-5.8-2.2-9.6-2.2
			c-3.4,0-6.3,0.7-8.7,2.2c-2.4,1.5-4.4,3.4-5.9,5.7c-1.5,2.3-2.7,5-3.4,8c-0.7,3-1.1,6-1.1,9C1540.4,56.4,1540.7,59.3,1541.4,62.3z
			"/>
		<path d="M1637.2,24.9c3.4,1.7,6.3,3.9,8.7,6.7c2.3,2.8,4.1,6.1,5.3,9.8c1.2,3.7,1.8,7.7,1.8,11.9c0,4.2-0.6,8.2-1.8,11.9
			c-1.2,3.7-3,7-5.3,9.8c-2.4,2.8-5.2,5-8.7,6.6c-3.4,1.6-7.4,2.4-11.8,2.4c-4.4,0-8.4-0.8-11.8-2.4c-3.4-1.6-6.3-3.8-8.7-6.6
			c-2.3-2.8-4.1-6.1-5.3-9.8c-1.2-3.7-1.8-7.7-1.8-11.9c0-4.2,0.6-8.2,1.8-11.9c1.2-3.7,3-7,5.3-9.8c2.4-2.8,5.2-5,8.7-6.7
			c3.4-1.7,7.4-2.5,11.8-2.5C1629.9,22.4,1633.8,23.2,1637.2,24.9z M1616.4,30.6c-2.6,1.4-4.7,3.3-6.4,5.7c-1.7,2.3-3,5-3.9,8
			c-0.9,3-1.3,6-1.3,9.1c0,3.1,0.4,6.1,1.3,9.1c0.9,3,2.2,5.6,3.9,8c1.7,2.4,3.8,4.2,6.4,5.7c2.6,1.4,5.6,2.1,8.9,2.1
			c3.4,0,6.4-0.7,8.9-2.1c2.6-1.4,4.7-3.3,6.4-5.7c1.7-2.3,3-5,3.9-8c0.9-3,1.3-6,1.3-9.1c0-3.1-0.4-6.1-1.3-9.1
			c-0.9-3-2.2-5.6-3.9-8c-1.7-2.3-3.8-4.2-6.4-5.7c-2.6-1.4-5.5-2.2-8.9-2.2C1622,28.4,1619,29.1,1616.4,30.6z"/>
		<path d="M649.2,138.9c-1.6-2.4-3.4-4.5-5.7-6.2c-2.2-1.7-4.7-2.9-7.3-3.8c-2.7-0.9-5.5-1.3-8.4-1.3c-5.4,0-10,1-13.8,3
			c-3.8,2-7,4.7-9.5,8.1c-2.4,3.4-4.3,7.2-5.4,11.4c-1.2,4.2-1.8,8.6-1.8,13c0,4.4,0.6,8.7,1.8,13c1.2,4.3,3,8.1,5.4,11.4
			c2.5,3.4,5.6,6.1,9.5,8.1c3.9,2,8.5,3.1,13.8,3.1c3.8,0,7.2-0.7,10.2-2c3-1.4,5.6-3.2,7.8-5.5c2.2-2.4,4-5.1,5.3-8.2
			c1.4-3.1,2.2-6.5,2.6-10.1h7.7c-0.5,5-1.7,9.5-3.5,13.5c-1.8,4-4.2,7.4-7,10.2c-2.9,2.8-6.2,4.9-10.1,6.5c-3.9,1.5-8.2,2.3-13,2.3
			c-6.3,0-11.9-1.1-16.7-3.4c-4.8-2.3-8.8-5.4-11.9-9.2c-3.2-3.9-5.5-8.3-7.1-13.4c-1.6-5.1-2.4-10.4-2.4-16c0-5.6,0.8-10.9,2.4-16
			c1.6-5.1,4-9.5,7.1-13.4c3.2-3.9,7.1-7,11.9-9.3c4.8-2.3,10.4-3.4,16.7-3.4c3.9,0,7.6,0.6,11.3,1.7c3.7,1.1,7,2.8,10,5
			c3,2.2,5.5,5,7.5,8.2c2,3.2,3.3,7,3.8,11.2h-7.7C651.9,144.1,650.8,141.3,649.2,138.9z"/>
		<path d="M708.3,145.9c3.4,1.7,6.3,3.9,8.7,6.7c2.3,2.8,4.1,6.1,5.3,9.8c1.2,3.7,1.8,7.7,1.8,11.9c0,4.2-0.6,8.2-1.8,11.9
			c-1.2,3.7-3,7-5.3,9.8c-2.3,2.8-5.2,5-8.7,6.6c-3.4,1.6-7.4,2.4-11.8,2.4c-4.5,0-8.4-0.8-11.8-2.4c-3.5-1.6-6.3-3.8-8.7-6.6
			c-2.3-2.8-4.1-6.1-5.3-9.8c-1.2-3.7-1.8-7.7-1.8-11.9c0-4.2,0.6-8.2,1.8-11.9c1.2-3.7,3-7,5.3-9.8c2.3-2.8,5.2-5,8.7-6.7
			c3.4-1.7,7.4-2.5,11.8-2.5C700.9,143.5,704.9,144.3,708.3,145.9z M687.5,151.6c-2.6,1.4-4.7,3.3-6.4,5.6c-1.7,2.3-3,5-3.8,8
			c-0.9,3-1.3,6-1.3,9.1c0,3.1,0.4,6.1,1.3,9.1c0.9,3,2.2,5.6,3.8,8c1.7,2.3,3.8,4.2,6.4,5.7c2.6,1.5,5.5,2.2,8.9,2.2
			c3.4,0,6.4-0.7,8.9-2.2c2.6-1.4,4.7-3.3,6.4-5.7c1.7-2.3,3-5,3.8-8c0.9-3,1.3-6,1.3-9.1c0-3.1-0.4-6.1-1.3-9.1
			c-0.9-3-2.1-5.6-3.8-8c-1.7-2.3-3.8-4.2-6.4-5.6c-2.6-1.4-5.6-2.2-8.9-2.2C693.1,149.4,690.1,150.2,687.5,151.6z"/>
		<path d="M742,122.7v39.1v41.8h-7.1v-42v-38.9H742z"/>
		<path d="M792.2,145.9c3.4,1.7,6.3,3.9,8.7,6.7c2.3,2.8,4.1,6.1,5.3,9.8c1.2,3.7,1.8,7.7,1.8,11.9c0,4.2-0.6,8.2-1.8,11.9
			c-1.2,3.7-3,7-5.3,9.8c-2.3,2.8-5.2,5-8.7,6.6c-3.4,1.6-7.4,2.4-11.8,2.4c-4.5,0-8.4-0.8-11.8-2.4c-3.4-1.6-6.3-3.8-8.7-6.6
			c-2.3-2.8-4.1-6.1-5.3-9.8c-1.2-3.7-1.8-7.7-1.8-11.9c0-4.2,0.6-8.2,1.8-11.9c1.2-3.7,3-7,5.3-9.8c2.3-2.8,5.2-5,8.7-6.7
			c3.4-1.7,7.4-2.5,11.8-2.5C784.8,143.5,788.8,144.3,792.2,145.9z M771.4,151.6c-2.6,1.4-4.7,3.3-6.4,5.6c-1.7,2.3-3,5-3.8,8
			c-0.9,3-1.3,6-1.3,9.1c0,3.1,0.4,6.1,1.3,9.1c0.9,3,2.2,5.6,3.8,8c1.7,2.3,3.8,4.2,6.4,5.7c2.6,1.5,5.6,2.2,8.9,2.2
			c3.4,0,6.4-0.7,8.9-2.2c2.6-1.4,4.7-3.3,6.4-5.7c1.7-2.3,3-5,3.8-8c0.9-3,1.3-6,1.3-9.1c0-3.1-0.4-6.1-1.3-9.1
			c-0.9-3-2.2-5.6-3.8-8c-1.7-2.3-3.8-4.2-6.4-5.6c-2.6-1.4-5.6-2.2-8.9-2.2C777,149.4,774,150.2,771.4,151.6z"/>
		<path d="M825.2,145.1v13.7h0.2c1.8-4.8,4.6-8.4,8.4-11c3.8-2.6,8.4-3.7,13.6-3.5v7.1c-3.2-0.2-6.2,0.3-8.8,1.3
			c-2.6,1-4.9,2.5-6.8,4.4c-1.9,1.9-3.4,4.1-4.5,6.7c-1.1,2.6-1.6,5.5-1.6,8.5v31.1h-7.1v-58.4H825.2z"/>
		<path d="M855.8,154.2c1.2-2.5,2.8-4.5,4.9-6.1c2.1-1.6,4.5-2.8,7.3-3.5c2.8-0.8,5.9-1.1,9.3-1.1c2.6,0,5.1,0.2,7.7,0.7
			c2.6,0.5,4.9,1.4,6.9,2.8c2,1.4,3.7,3.3,5,5.7c1.3,2.4,1.9,5.6,1.9,9.5v31c0,2.9,1.4,4.3,4.2,4.3c0.8,0,1.6-0.2,2.3-0.5v6
			c-0.8,0.1-1.6,0.3-2.2,0.3c-0.6,0.1-1.5,0.1-2.4,0.1c-1.8,0-3.3-0.2-4.4-0.7c-1.1-0.5-1.9-1.2-2.6-2.1c-0.6-0.9-1-2-1.2-3.2
			c-0.2-1.3-0.3-2.6-0.3-4.1H892c-1.3,1.9-2.6,3.6-3.9,5c-1.3,1.5-2.8,2.7-4.4,3.7c-1.6,1-3.5,1.7-5.5,2.3c-2.1,0.5-4.6,0.8-7.4,0.8
			c-2.7,0-5.3-0.3-7.6-1c-2.4-0.7-4.5-1.7-6.2-3.1c-1.8-1.4-3.2-3.2-4.2-5.3c-1-2.1-1.5-4.7-1.5-7.6c0-4.1,0.9-7.3,2.7-9.6
			c1.8-2.3,4.2-4.1,7.2-5.3c3-1.2,6.3-2.1,10.1-2.5c3.7-0.5,7.5-1,11.4-1.4c1.5-0.1,2.8-0.3,4-0.6c1.1-0.2,2.1-0.6,2.8-1.2
			c0.7-0.6,1.3-1.4,1.8-2.3c0.4-1,0.6-2.3,0.6-3.8c0-2.4-0.4-4.4-1.2-5.9c-0.8-1.5-1.9-2.8-3.3-3.7c-1.4-0.9-3-1.5-4.9-1.9
			c-1.9-0.3-3.8-0.5-5.9-0.5c-4.5,0-8.2,1.1-11.1,3.2c-2.9,2.1-4.4,5.6-4.5,10.4h-7.1C853.9,159.6,854.6,156.7,855.8,154.2z
			 M891.4,171.6c-0.4,0.8-1.3,1.4-2.6,1.8c-1.3,0.4-2.4,0.6-3.4,0.8c-3,0.5-6.1,1-9.3,1.4c-3.2,0.4-6.1,1-8.8,1.9
			c-2.6,0.8-4.8,2-6.5,3.6c-1.7,1.5-2.5,3.7-2.5,6.6c0,1.8,0.4,3.4,1.1,4.8c0.7,1.4,1.7,2.6,2.9,3.6c1.2,1,2.6,1.8,4.2,2.3
			c1.6,0.5,3.2,0.8,4.9,0.8c2.7,0,5.3-0.4,7.8-1.2c2.5-0.8,4.7-2,6.5-3.6c1.8-1.6,3.3-3.5,4.4-5.8c1.1-2.3,1.6-4.8,1.6-7.7v-9.3
			H891.4z"/>
		<path d="M957.9,203.6v-11.1h-0.2c-0.7,1.9-1.9,3.6-3.3,5.2c-1.5,1.6-3.2,2.9-5,4c-1.9,1.1-3.9,1.9-6.1,2.5
			c-2.1,0.6-4.3,0.9-6.4,0.9c-4.4,0-8.3-0.8-11.6-2.4c-3.3-1.6-6-3.8-8.2-6.7c-2.2-2.8-3.8-6.1-4.9-9.9c-1.1-3.7-1.6-7.7-1.6-11.8
			c0-4.1,0.5-8.1,1.6-11.8c1.1-3.7,2.7-7,4.9-9.8c2.2-2.8,4.9-5.1,8.2-6.8c3.3-1.7,7.2-2.5,11.6-2.5c2.2,0,4.3,0.3,6.4,0.8
			c2.1,0.5,4,1.4,5.8,2.4c1.8,1.1,3.4,2.4,4.8,4c1.4,1.6,2.5,3.4,3.2,5.6h0.2v-33.5h7.1v80.8H957.9z M918.8,183.4
			c0.7,3,1.9,5.6,3.4,8c1.5,2.3,3.5,4.2,5.9,5.7c2.4,1.5,5.3,2.2,8.7,2.2c3.8,0,7-0.7,9.6-2.2c2.6-1.5,4.7-3.4,6.3-5.7
			c1.6-2.3,2.8-5,3.5-8c0.7-3,1.1-6,1.1-9c0-3-0.4-6-1.1-9c-0.7-3-1.9-5.6-3.5-8c-1.6-2.3-3.7-4.3-6.3-5.7c-2.6-1.5-5.8-2.2-9.6-2.2
			c-3.4,0-6.3,0.7-8.7,2.2c-2.4,1.5-4.4,3.4-5.9,5.7c-1.5,2.3-2.7,5-3.4,8c-0.7,3-1.1,6-1.1,9C917.7,177.4,918.1,180.4,918.8,183.4z
			"/>
		<path d="M1014.5,145.9c3.4,1.7,6.3,3.9,8.7,6.7c2.3,2.8,4.1,6.1,5.3,9.8c1.2,3.7,1.8,7.7,1.8,11.9c0,4.2-0.6,8.2-1.8,11.9
			c-1.2,3.7-3,7-5.3,9.8c-2.3,2.8-5.2,5-8.7,6.6c-3.4,1.6-7.4,2.4-11.8,2.4c-4.5,0-8.4-0.8-11.8-2.4c-3.4-1.6-6.3-3.8-8.7-6.6
			c-2.3-2.8-4.1-6.1-5.3-9.8c-1.2-3.7-1.8-7.7-1.8-11.9c0-4.2,0.6-8.2,1.8-11.9c1.2-3.7,3-7,5.3-9.8c2.3-2.8,5.2-5,8.7-6.7
			c3.4-1.7,7.4-2.5,11.8-2.5C1007.2,143.5,1011.1,144.3,1014.5,145.9z M993.8,151.6c-2.6,1.4-4.7,3.3-6.4,5.6c-1.7,2.3-3,5-3.9,8
			c-0.9,3-1.3,6-1.3,9.1c0,3.1,0.4,6.1,1.3,9.1c0.9,3,2.2,5.6,3.9,8c1.7,2.3,3.8,4.2,6.4,5.7c2.6,1.5,5.5,2.2,8.9,2.2
			c3.4,0,6.4-0.7,8.9-2.2c2.6-1.4,4.7-3.3,6.4-5.7c1.7-2.3,3-5,3.8-8c0.9-3,1.3-6,1.3-9.1c0-3.1-0.4-6.1-1.3-9.1
			c-0.9-3-2.2-5.6-3.8-8c-1.7-2.3-3.8-4.2-6.4-5.6c-2.6-1.4-5.6-2.2-8.9-2.2C999.3,149.4,996.4,150.2,993.8,151.6z"/>
		<path d="M1079.4,187.4c1.4,2.8,3.2,5,5.6,6.7c2.4,1.7,5.2,2.8,8.4,3.6c3.2,0.7,6.7,1.1,10.4,1.1c2.1,0,4.4-0.3,6.9-0.9
			c2.5-0.6,4.8-1.6,7-2.9c2.2-1.3,4-3,5.4-5.1c1.4-2.1,2.2-4.6,2.2-7.5c0-2.3-0.5-4.2-1.5-5.9c-1-1.7-2.3-3.1-4-4.2
			c-1.6-1.1-3.4-2.1-5.4-2.8c-2-0.7-3.9-1.3-5.8-1.8l-18-4.4c-2.3-0.6-4.6-1.4-6.8-2.3c-2.2-0.9-4.2-2.1-5.8-3.6
			c-1.7-1.5-3-3.4-4-5.5c-1-2.2-1.5-4.9-1.5-8c0-2,0.4-4.3,1.1-6.9c0.7-2.6,2.2-5.1,4.2-7.5c2.1-2.3,4.9-4.3,8.6-5.9
			c3.6-1.6,8.3-2.4,13.9-2.4c4,0,7.8,0.5,11.4,1.6c3.6,1.1,6.8,2.6,9.5,4.8c2.7,2.1,4.9,4.7,6.5,7.9c1.6,3.1,2.4,6.8,2.4,10.9h-7.7
			c-0.2-3.1-0.8-5.8-2.1-8.1c-1.3-2.3-2.9-4.2-4.9-5.8c-2-1.5-4.3-2.7-6.9-3.5c-2.6-0.8-5.3-1.2-8.2-1.2c-2.7,0-5.2,0.3-7.7,0.8
			c-2.4,0.6-4.6,1.5-6.4,2.7c-1.9,1.3-3.3,2.9-4.5,4.9c-1.1,2-1.7,4.6-1.7,7.6c0,1.9,0.3,3.5,1,4.9c0.6,1.4,1.5,2.6,2.7,3.6
			c1.1,1,2.4,1.8,3.9,2.4c1.5,0.6,3,1.1,4.7,1.5l19.7,4.9c2.8,0.8,5.6,1.7,8.1,2.8c2.5,1.1,4.8,2.5,6.7,4.1c1.9,1.6,3.4,3.6,4.5,6
			c1.1,2.3,1.6,5.2,1.6,8.5c0,0.9-0.1,2.1-0.3,3.6c-0.2,1.5-0.6,3.1-1.4,4.8c-0.7,1.7-1.7,3.4-3,5.2c-1.3,1.7-3.1,3.3-5.4,4.7
			c-2.3,1.4-5.2,2.5-8.5,3.4c-3.4,0.9-7.5,1.3-12.2,1.3c-4.8,0-9.2-0.6-13.3-1.6c-4.1-1.1-7.6-2.8-10.4-5c-2.9-2.3-5.1-5.2-6.6-8.7
			c-1.5-3.5-2.2-7.8-2-12.8h7.7C1077.4,181.1,1078,184.6,1079.4,187.4z"/>
		<path d="M1150.4,145.1v11.1h0.2c1.7-4.1,4.3-7.2,8.1-9.5c3.7-2.2,8-3.3,12.7-3.3c4.5,0,8.3,0.8,11.6,2.5c3.3,1.7,6,3.9,8.2,6.8
			c2.2,2.8,3.8,6.1,4.9,9.8c1.1,3.7,1.6,7.7,1.6,11.8c0,4.2-0.5,8.1-1.6,11.8c-1.1,3.7-2.7,7-4.9,9.9c-2.2,2.8-4.9,5.1-8.2,6.7
			c-3.3,1.6-7.1,2.4-11.6,2.4c-2.1,0-4.2-0.3-6.3-0.8c-2.1-0.5-4.1-1.3-5.9-2.4c-1.8-1.1-3.4-2.4-4.8-4c-1.4-1.6-2.5-3.4-3.2-5.5
			h-0.2v32.6h-7.1v-79.9H1150.4z M1189.5,165.3c-0.7-3-1.8-5.6-3.4-8c-1.5-2.3-3.5-4.3-5.9-5.7c-2.4-1.5-5.3-2.2-8.7-2.2
			c-3.9,0-7.2,0.7-9.8,2c-2.7,1.4-4.8,3.2-6.4,5.4c-1.6,2.3-2.7,4.9-3.3,7.9c-0.6,3-1,6.2-1,9.5c0,3,0.3,6,1.1,9
			c0.7,3,1.9,5.6,3.5,8c1.6,2.3,3.7,4.2,6.3,5.7c2.6,1.5,5.8,2.2,9.6,2.2c3.4,0,6.3-0.7,8.7-2.2c2.4-1.5,4.4-3.4,5.9-5.7
			c1.6-2.3,2.7-5,3.4-8c0.7-3,1.1-6,1.1-9C1190.6,171.3,1190.2,168.3,1189.5,165.3z"/>
		<path d="M1215.3,145.1v13.7h0.2c1.8-4.8,4.6-8.4,8.4-11c3.8-2.6,8.4-3.7,13.6-3.5v7.1c-3.2-0.2-6.2,0.3-8.8,1.3
			c-2.7,1-4.9,2.5-6.9,4.4c-1.9,1.9-3.4,4.1-4.5,6.7c-1.1,2.6-1.6,5.5-1.6,8.5v31.1h-7.1v-58.4H1215.3z"/>
		<path d="M1251.7,122.7v11.4h-7.1v-11.4H1251.7z M1251.7,145.1v58.4h-7.1v-58.4H1251.7z"/>
		<path d="M1272.4,145.1v10.1h0.2c1.4-3.6,3.8-6.4,7.3-8.6c3.5-2.2,7.3-3.2,11.4-3.2c4.1,0,7.5,0.5,10.3,1.6c2.7,1.1,5,2.5,6.6,4.5
			c1.7,1.9,2.8,4.3,3.5,7.1c0.7,2.8,1,5.9,1,9.4v37.6h-7.1v-36.5c0-2.5-0.2-4.8-0.7-6.9c-0.5-2.2-1.2-4-2.4-5.6
			c-1.1-1.6-2.7-2.8-4.6-3.7c-1.9-0.9-4.3-1.4-7.2-1.4c-2.9,0-5.4,0.5-7.7,1.5c-2.2,1-4.1,2.4-5.6,4.2c-1.5,1.8-2.8,3.9-3.6,6.3
			c-0.9,2.5-1.3,5.1-1.4,8v34.1h-7.1v-58.4H1272.4z"/>
		<path d="M1374.1,210.5c-0.9,3.5-2.4,6.4-4.5,8.8c-2,2.4-4.7,4.3-8,5.5c-3.3,1.3-7.3,1.9-12.1,1.9c-2.9,0-5.8-0.3-8.6-1
			c-2.8-0.7-5.3-1.7-7.5-3.2c-2.2-1.4-4.1-3.3-5.5-5.5c-1.5-2.2-2.3-4.9-2.6-8h7.1c0.4,2.2,1.1,4,2.2,5.5c1.1,1.5,2.4,2.7,4,3.6
			c1.5,0.9,3.3,1.6,5.2,2c1.9,0.4,3.8,0.6,5.8,0.6c6.7,0,11.4-1.9,14.4-5.7c3-3.8,4.4-9.2,4.4-16.3v-7.9h-0.2
			c-1.7,3.6-4.1,6.5-7.3,8.7c-3.2,2.2-7,3.3-11.3,3.3c-4.7,0-8.7-0.8-12-2.3c-3.3-1.5-6.1-3.7-8.2-6.4c-2.1-2.7-3.7-5.9-4.7-9.6
			c-1-3.7-1.5-7.6-1.5-11.7c0-4,0.6-7.8,1.7-11.4c1.2-3.6,2.9-6.7,5.1-9.4c2.2-2.7,5-4.8,8.3-6.3c3.3-1.6,7.1-2.3,11.3-2.3
			c2.2,0,4.3,0.3,6.2,0.9c1.9,0.6,3.7,1.5,5.3,2.5c1.6,1.1,3,2.4,4.2,3.8c1.2,1.4,2.2,2.9,2.9,4.5h0.2v-10.1h7.1v53.7
			C1375.5,203.1,1375.1,207,1374.1,210.5z M1357.8,194.9c2.3-1.3,4.3-3.1,5.9-5.2c1.6-2.1,2.8-4.6,3.6-7.4c0.8-2.8,1.2-5.7,1.2-8.6
			c0-2.9-0.3-5.7-1-8.6c-0.7-2.9-1.8-5.5-3.3-7.8c-1.5-2.3-3.5-4.2-5.8-5.6c-2.4-1.4-5.3-2.2-8.7-2.2c-3.4,0-6.3,0.7-8.7,2.1
			c-2.4,1.4-4.4,3.2-6,5.5c-1.6,2.3-2.7,4.8-3.5,7.8c-0.7,2.9-1.1,5.9-1.1,8.9c0,2.9,0.4,5.8,1.1,8.6c0.8,2.8,1.9,5.3,3.5,7.4
			c1.6,2.2,3.6,3.9,6,5.2c2.4,1.3,5.3,2,8.6,2C1352.7,196.9,1355.4,196.2,1357.8,194.9z"/>
		<path d="M1422.7,156.5c-0.8-1.6-1.9-3-3.3-4c-1.4-1.1-3-1.8-4.8-2.3c-1.8-0.5-3.7-0.7-5.8-0.7c-1.6,0-3.2,0.2-4.8,0.5
			c-1.6,0.3-3.1,0.9-4.5,1.7c-1.4,0.8-2.5,1.8-3.3,3.1c-0.8,1.3-1.3,2.9-1.3,4.8c0,1.6,0.4,2.9,1.2,4c0.8,1.1,1.8,2,3,2.8
			c1.2,0.7,2.5,1.4,4,1.9c1.4,0.5,2.7,0.9,3.9,1.2l9.5,2.2c2,0.3,4.1,0.8,6.1,1.6c2,0.8,3.8,1.8,5.3,3.1c1.6,1.3,2.8,2.9,3.8,4.8
			c1,1.9,1.5,4.1,1.5,6.7c0,3.2-0.7,5.9-2.2,8.1c-1.4,2.2-3.3,4.1-5.5,5.4c-2.2,1.4-4.7,2.4-7.5,3c-2.8,0.6-5.6,0.9-8.3,0.9
			c-6.9,0-12.4-1.6-16.7-4.9c-4.3-3.3-6.7-8.5-7.3-15.6h7.1c0.3,4.8,2.1,8.5,5.3,10.9c3.2,2.5,7.2,3.7,12,3.7c1.7,0,3.5-0.2,5.4-0.6
			c1.8-0.4,3.6-1,5.2-1.9c1.6-0.9,2.9-2.1,3.9-3.5c1-1.4,1.5-3.1,1.5-5.1c0-1.7-0.4-3.2-1.1-4.4c-0.7-1.2-1.7-2.1-2.9-2.9
			c-1.2-0.8-2.6-1.4-4.1-2c-1.5-0.5-3.1-1-4.7-1.4l-9.2-2c-2.4-0.6-4.5-1.3-6.5-2.1c-2-0.8-3.7-1.8-5.1-2.9
			c-1.5-1.2-2.6-2.6-3.5-4.3c-0.8-1.7-1.2-3.8-1.2-6.3c0-2.9,0.7-5.5,2-7.6c1.3-2.1,3-3.8,5.2-5.1c2.1-1.3,4.5-2.2,7.1-2.8
			c2.6-0.6,5.2-0.9,7.8-0.9c3,0,5.7,0.4,8.2,1.1c2.5,0.8,4.8,1.9,6.7,3.5c1.9,1.6,3.5,3.5,4.6,5.9c1.1,2.4,1.8,5.1,1.9,8.3h-7.1
			C1424,160,1423.6,158.1,1422.7,156.5z"/>
	</g>
</g>
<g id="UCCS_Logo_-_Color_1_">
	<g id="Background_shape_1_">
		<polygon id="Black_background_1_" points="526.3,58.5 502.3,34.3 501,33.1 499.3,33.1 418,33.1 416.2,33.1 414.9,34.3 395.2,54.4 
			375.1,34.3 373.9,33.1 372.1,33.1 291.1,33.1 289.4,33.1 288.1,34.3 268,54.5 247.9,34.3 246.7,33.1 244.9,33.1 164,33.1 
			162.2,33.1 161,34.3 147.5,47.8 147.5,37.3 147.5,33.1 143.3,33.1 92,33.1 87.8,33.1 87.8,37.3 87.8,45.4 60.7,45.4 60.7,37.3 
			60.7,33.1 56.4,33.1 6,33.1 1.7,33.1 1.7,37.3 1.7,78.9 1.7,83.2 6,83.2 10.1,83.2 10.1,147.5 10.1,149.2 11.4,150.5 35.7,174.6 
			36.9,175.8 38.7,175.8 109.9,175.8 111.7,175.8 112.9,174.6 135.2,152.3 138.8,152.3 161,174.5 162.3,175.8 164,175.8 
			244.9,175.8 246.7,175.8 248,174.5 268,154.3 288.2,174.5 289.4,175.8 291.2,175.8 372.1,175.8 373.9,175.8 375.2,174.5 
			395.1,154.4 414.9,174.5 416.2,175.8 418,175.8 499.2,175.8 500.9,175.8 502.2,174.5 526.3,150.4 527.5,149.1 527.5,147.4 
			527.5,106.2 527.5,104.4 526.3,103.1 517.4,94.2 523.3,94.2 527.6,94.2 527.6,89.9 527.6,61.5 527.6,59.7 		"/>
		<path id="Gold_Stroke_1_" class="st0" d="M112.4,177.6H36.2l-1.7-1.7L8.4,150v-65H0V31.3h62.4v12.3H86V31.3h63.2v12.3l12.3-12.3
			h85.9L268,52l20.6-20.7h85.9L395.2,52l20.3-20.6h86.3L529.3,59v36.9h-7.8l7.7,7.7v46.2l-27.6,27.6h-86.2l-20.4-20.7l-20.5,20.7
			h-85.9L268,156.8l-20.6,20.7h-85.9l-1.8-1.8L138,154h-2.1L112.4,177.6z M37.7,174.1H111l23.5-23.5h5L163,174h83l22-22.2l22.2,22.2
			h83l22-22.1l21.8,22.1h83.3l25.6-25.6v-43.3l-12.6-12.6h12.7v-32l-25.5-25.6h-83.4l-21.8,22.1l-22-22.1h-83.1L268,56.9l-22-22.1
			h-83L145.8,52V34.8H89.5v12.3H59V34.8H3.5v46.7h8.4v67L37.7,174.1z"/>
	</g>
	<g id="Gold_U_1_">
		<polygon id="Gold_U_2_" class="st0" points="42,163.4 22.6,144.1 22.6,70.7 14.2,70.7 14.2,45.5 48.3,45.5 48.3,137.6 
			100.2,137.6 100.2,45.5 135.1,45.5 135.1,70.7 125.9,70.7 125.9,144 106.6,163.4 		"/>
		<path id="White_Stroke_7_" class="st1" d="M133.2,47.4v21.5H124v74.4l-18.2,18.3H42.8l-18.4-18.2V68.8H16V47.4h30.4v92.1h55.7
			V47.4H133.2 M137,43.6h-3.8h-31.1h-3.8v3.8v88.4H50.1V47.4v-3.8h-3.8H16h-3.7v3.8v21.5v3.8H16h4.7v70.7v1.6l1.1,1.1l18.4,18.2
			l1.1,1.1h1.6h62.9h1.6l1.1-1.1l18.2-18.3l1.1-1.1v-1.5V72.6h5.4h3.8v-3.8V47.4V43.6L137,43.6z"/>
	</g>
	<g id="Gold_C_4_">
		<polygon id="Gold_C_5_" class="st0" points="167.4,163.3 148,144 148.1,64.9 167.4,45.5 241.6,45.5 260.8,64.8 260.8,82.6 
			235,82.6 235,70.7 173.8,70.7 173.8,137.6 235,137.6 235,126.8 260.7,126.8 260.7,144 241.6,163.3 		"/>
		<path id="White_Stroke_6_" class="st1" d="M240.8,47.4L259,65.6l0,15.2h-22V68.8h-65v70.7h65v-10.8h22v14.5l-18,18.2h-72.6
			l-18.3-18.2l0-77.6l18.2-18.3H240.8 M242.4,43.6h-1.6h-72.6h-1.6l-1.1,1.1L147.3,63l-1.1,1.1l0,1.5l0,77.6v1.6l1.1,1.1l18.3,18.2
			l1.1,1.1h1.6h72.6h1.6l1.1-1.1l18-18.2l1.1-1.1v-1.5v-14.5v-3.8h-3.8h-22h-3.8v3.8v7h-57.5V72.6h57.5v8.2v3.8h3.8h22h3.8l0-3.8
			l0.1-15.2l0-1.6l-1.1-1.1l-18.2-18.2L242.4,43.6L242.4,43.6z"/>
	</g>
	<g id="Gold_C_2_">
		<polygon id="Gold_C_3_" class="st0" points="294.5,163.3 275.2,144 275.2,64.9 294.5,45.5 368.7,45.5 388,64.8 387.9,82.6 
			362.3,82.6 362.3,70.7 300.8,70.7 300.8,137.6 362.3,137.6 362.3,126.8 387.8,126.8 387.8,144 368.7,163.3 		"/>
		<path id="White_Stroke_5_" class="st1" d="M367.9,47.4l18.2,18.2l0,15.2h-21.9V68.8h-65.2v70.7h65.2v-10.8H386v14.5l-18.1,18.2
			h-72.6l-18.2-18.2l0-77.6l18.2-18.3H367.9 M369.5,43.6h-1.6h-72.6h-1.6l-1.1,1.1L274.4,63l-1.1,1.1l0,1.5l0,77.6v1.6l1.1,1.1
			l18.2,18.2l1.1,1.1h1.6h72.6h1.6l1.1-1.1l18-18.2l1.1-1.1v-1.5v-14.5v-3.8H386h-21.8h-3.8v3.8v7h-57.7V72.6h57.7v8.2v3.8h3.8h21.9
			h3.8l0-3.8l0-15.2v-1.5l-1.1-1.1l-18.2-18.2L369.5,43.6L369.5,43.6z"/>
	</g>
	<g id="Gold_S_1_">
		<polygon id="Gold_S_2_" class="st0" points="421.4,163.3 402.4,144 402.4,126.8 428.3,126.8 428.3,137.6 489.3,137.6 489.3,115.1 
			418.1,115.1 402.4,99.4 402.4,64.8 421.4,45.5 495.9,45.5 515.1,64.9 515.1,81.8 489.3,81.8 489.3,70.7 428.1,70.7 428.1,93.4 
			498.9,93.4 515.1,109.6 515.1,144 495.8,163.3 		"/>
		<path id="White_Stroke_4_" class="st1" d="M495.1,47.3l18.2,18.3v14.3h-22V68.8h-65v26.4h71.9l15.1,15.1v32.8L495,161.5h-72.8
			l-17.9-18.3v-14.5h22.1v10.8h64.8v-26.3l-72.3,0l-14.7-14.6v-33l17.9-18.2L495.1,47.3 M496.7,43.6h-1.6l-72.9,0l-1.6,0l-1.1,1.1
			L401.6,63l-1.1,1.1v1.5v33v1.6l1.1,1.1l14.7,14.6l1.1,1.1h1.6l68.5,0v18.8h-57.3v-7v-3.8h-3.8h-22.1h-3.8v3.8v14.5v1.5l1.1,1.1
			l17.9,18.3l1.1,1.1h1.6H495h1.5l1.1-1.1l18.2-18.3l1.1-1.1v-1.5v-32.8v-1.6l-1.1-1.1l-15.1-15.1l-1.1-1.1h-1.6H430V72.6h57.4v7.3
			v3.8h3.8h22h3.8v-3.8V65.6v-1.5l-1.1-1.1l-18.2-18.3L496.7,43.6L496.7,43.6z"/>
	</g>
</g>
</svg>
